<svg id="Margin_Guide" data-name="Margin/Guide" xmlns="http://www.w3.org/2000/svg" viewBox="0 0 815.28 939.78"><defs><style>.cls-1{fill:#faa42f;}.cls-1,.cls-10,.cls-11,.cls-12,.cls-13,.cls-14,.cls-15,.cls-16,.cls-17,.cls-18,.cls-19,.cls-2,.cls-20,.cls-21,.cls-22,.cls-23,.cls-24,.cls-25,.cls-26,.cls-27,.cls-28,.cls-29,.cls-3,.cls-30,.cls-31,.cls-32,.cls-34,.cls-35,.cls-37,.cls-38,.cls-39,.cls-4,.cls-5,.cls-6,.cls-7,.cls-8,.cls-9{fill-rule:evenodd;}.cls-2{fill:#ddb02a;}.cls-3{fill:#c47728;}.cls-4{fill:#f15933;}.cls-5{fill:#f37132;}.cls-6{fill:#d6e042;}.cls-7{fill:#fcea3b;}.cls-8{fill:#e22574;}.cls-9{fill:#ef3839;}.cls-10{fill:#bbd64b;}.cls-11{fill:#ffcf29;}.cls-12{fill:#ee438d;}.cls-13{fill:#cc3192;}.cls-14{fill:#bd2025;}.cls-15{fill:#9b3995;}.cls-16{fill:#f1eb59;}.cls-17{fill:#f7975f;}.cls-18{fill:#d31f26;}.cls-19{fill:#73206a;}.cls-20,.cls-33{fill:#853a96;}.cls-21{fill:#d98a26;}.cls-22{fill:#8f4f9f;}.cls-23{fill:#d24b9b;}.cls-24{fill:#b263a7;}.cls-25{fill:#6b297a;}.cls-26{fill:#782a8f;}.cls-27{fill:#a01664;}.cls-28{fill:#c02026;}.cls-29{fill:#9051a0;}.cls-30{fill:#b01b4a;}.cls-31{fill:#c54627;}.cls-32{fill:#a41768;}.cls-34{fill:#d1499a;}.cls-35{fill:#85459a;}.cls-36{fill:#341144;}.cls-37{fill:#ee3f8a;}.cls-38{fill:#f4805f;}.cls-39{fill:#552263;}</style></defs><title>logo</title><polygon class="cls-1" points="3.36 706.51 3.36 703.16 0 701.48 0 704.84 3.36 706.51"/><polygon class="cls-2" points="0 587.92 3.36 585.68 3.36 527.5 0 525.84 0 587.92"/><polygon class="cls-3" points="0 701.48 3.36 703.16 43.7 679.66 43.7 609.18 3.36 585.68 0 587.92 0 701.48"/><polygon class="cls-4" points="101.42 763.56 104.78 761.34 155.21 790.98 155.21 794.35 101.42 763.56"/><polygon class="cls-5" points="101.42 763.56 104.78 761.34 104.78 714.91 43.7 679.66 3.36 703.16 3.36 706.51 101.42 763.56"/><polygon class="cls-6" points="0 412.28 3.36 410.6 3.36 351.86 0 350.17 0 412.28"/><path class="cls-7" d="M34.87,559.27l3.35,1.66,35.3-20.13a276.66,276.66,0,0,1-2.23-37.48c0-12.88,1.12-26.31,2.23-39.16L38.22,444l-3.35,1.68Z" transform="translate(-34.87 -33.43)"/><path class="cls-1" d="M38.22,619.67l40.35,22.94,61.08-34.69h0v-47L109.94,543.6c.57,8.4,2.25,16.78,3.93,25.17l-32.5,19a274.77,274.77,0,0,1-7.85-47l-35.3,20.13Z" transform="translate(-34.87 -33.43)"/><path class="cls-4" d="M139.65,794.77V748.34h0l16.24-9.51-.55-.55c7.84,9.5,16.24,18.44,24.65,26.84a376.88,376.88,0,0,0,45.38,38.59l-35.3,20.7Zm60.51-81.67,40.9,23.49v34.12a268.07,268.07,0,0,1-35.3-30.77,201.84,201.84,0,0,1-18.49-19.57Z" transform="translate(-34.87 -33.43)"/><polygon class="cls-8" points="307.62 882.17 307.62 878.25 256.63 849.17 253.83 850.85 307.62 882.17"/><path class="cls-9" d="M288.7,884.28l2.8-1.68V841.75a354.12,354.12,0,0,1-66.13-38l-35.3,20.7v3.37Z" transform="translate(-34.87 -33.43)"/><polygon class="cls-10" points="0 236.62 3.36 234.94 3.36 233.27 0 234.94 0 236.62"/><polygon class="cls-6" points="0 350.17 3.36 351.86 53.79 322.77 53.79 264.04 3.36 234.94 0 236.62 0 350.17"/><path class="cls-11" d="M38.22,444l35.3,20.13A382.56,382.56,0,0,1,99.31,362.35l-10.65-6.14L38.22,385.29Zm71.72,16.78L139.65,444V385.29l-9-5.05a328,328,0,0,0-20.74,80.57Z" transform="translate(-34.87 -33.43)"/><path class="cls-1" d="M109.94,543.6l29.71,17.33,50.42-29.08V473.11L139.65,444l-29.71,16.78a355.24,355.24,0,0,0-2.79,42.51,319,319,0,0,0,2.79,40.28Z" transform="translate(-34.87 -33.43)"/><polygon class="cls-4" points="165.29 609.18 200.59 589.03 200.59 589.03 256.63 621.48 256.63 673.5 206.2 703.16 165.29 679.66 165.29 609.18 165.29 609.18"/><path class="cls-12" d="M291.5,882.6l51,29.08,51-29.08V870.85c-35.87-5-70.05-14.54-102-29.1Zm102-48.12V824.41l-51-29.64-29.71,17.34a318.78,318.78,0,0,0,80.7,22.37Z" transform="translate(-34.87 -33.43)"/><polygon class="cls-5" points="165.29 609.18 200.59 589.03 200.59 524.15 155.21 498.42 104.78 527.5 104.78 574.49 165.29 609.18"/><polygon class="cls-13" points="405.68 938.67 409.05 936.99 409.05 878.25 358.61 849.17 307.62 878.25 307.62 882.17 405.68 938.67"/><path class="cls-14" d="M312.78,812.11l29.71-17.34V736.59l-51-29.66-50.44,29.66v34.12a315.47,315.47,0,0,0,71.72,41.4Z" transform="translate(-34.87 -33.43)"/><polygon class="cls-15" points="410.71 938.11 409.05 936.99 405.68 938.67 407.92 939.78 410.71 938.11"/><polygon class="cls-16" points="3.36 234.94 53.79 264.04 104.78 234.94 104.78 176.2 103.1 175.64 3.36 233.27 3.36 234.94"/><path class="cls-7" d="M88.66,356.21l10.65,6.14c12.88-31.9,30.25-61,51-87.82l-10.65-6.16-51,29.1Zm42,24,9,5.05,50.42-29.08V297.47l-8.4-4.48a346.18,346.18,0,0,0-51,87.25Z" transform="translate(-34.87 -33.43)"/><polygon class="cls-1" points="104.78 410.6 155.21 439.68 200.59 413.39 200.59 350.75 202.28 349.62 155.21 322.77 104.78 351.86 104.78 410.6"/><polygon class="cls-8" points="307.62 761.34 358.61 790.98 409.05 761.34 409.05 707.64 407.92 708.19 353.01 676.87 307.62 703.16 307.62 761.34"/><polygon class="cls-17" points="155.21 498.42 200.59 524.15 200.59 413.39 155.21 439.68 155.21 498.42"/><path class="cls-13" d="M393.48,882.6l50.43,29.08,51-29.08V870.29a407,407,0,0,1-52.12,3.35,467.31,467.31,0,0,1-49.3-2.79ZM494.9,833.92v-9.51l-51-29.64-50.43,29.64v10.07a354.19,354.19,0,0,0,49.3,3.36,327.74,327.74,0,0,0,52.12-3.92Z" transform="translate(-34.87 -33.43)"/><polygon class="cls-18" points="256.63 673.5 307.62 703.16 353.01 676.87 256.63 621.48 256.63 673.5"/><polygon class="cls-19" points="409.05 936.99 410.71 938.11 510.45 880.49 510.45 878.25 460.04 849.17 409.05 878.25 409.05 936.99"/><polygon class="cls-6" points="103.1 175.64 104.78 176.2 155.21 147.12 155.21 145.43 103.1 175.64"/><path class="cls-11" d="M139.65,268.37l10.65,6.16c9.51-11.75,19.61-22.37,29.69-33a354.17,354.17,0,0,1,47.07-39.72l-37-21.25-50.42,29.08Zm42,24.62,8.4,4.48,51-29.1V235.94a265.09,265.09,0,0,0-35.3,30.76c-8.4,8.38-16.24,16.76-24.09,26.29Z" transform="translate(-34.87 -33.43)"/><polygon class="cls-1" points="155.21 322.77 202.28 349.62 256.63 318.3 256.63 264.04 206.2 234.94 155.21 264.04 155.21 322.77"/><polygon class="cls-20" points="563.13 850.27 561.44 849.17 510.45 878.25 510.45 880.49 563.13 850.27"/><polygon class="cls-13" points="409.05 761.34 460.04 790.98 510.45 761.34 510.45 703.16 463.96 675.74 409.05 707.64 409.05 761.34"/><path class="cls-15" d="M494.9,882.6l50.42,29.08,51-29.08v-42A372.07,372.07,0,0,1,494.9,870.29Zm79-71.05-28.58-16.78L494.9,824.41v9.51c27.46-4.48,54.34-11.75,79-22.37Z" transform="translate(-34.87 -33.43)"/><path class="cls-11" d="M190.07,180.55l37,21.25a367.86,367.86,0,0,1,64.44-36.92V121.81l-1.13-.56-100.3,57.61Z" transform="translate(-34.87 -33.43)"/><path class="cls-21" d="M241.06,268.37l50.44,29.1,51-29.1V209.63L315,194c-26.9,10.64-51.55,25.18-74,42Z" transform="translate(-34.87 -33.43)"/><path class="cls-22" d="M596.31,882.6l1.68,1.11,99.74-57.61v-1.69l-37-21.25a388.1,388.1,0,0,1-64.44,37.48Z" transform="translate(-34.87 -33.43)"/><polygon class="cls-5" points="354.69 261.78 307.62 234.94 256.63 264.04 256.63 318.3 354.69 261.78"/><polygon class="cls-23" points="463.96 675.74 510.45 703.16 561.44 673.5 561.44 619.8 463.96 675.74"/><path class="cls-24" d="M545.32,794.77l28.58,16.78a316.23,316.23,0,0,0,72.84-43.08V736.59l-50.43-29.66-51,29.66Z" transform="translate(-34.87 -33.43)"/><polygon class="cls-11" points="255.5 87.82 256.63 88.38 307.62 59.27 307.62 57.61 255.5 87.82"/><path class="cls-1" d="M315,194l27.46,15.67,40.89-22.94V173.83l2.25-.55A331.19,331.19,0,0,0,315,194Zm68.35-77.76L342.49,92.71l-51,29.1v43.07a387.55,387.55,0,0,1,91.88-27.4Z" transform="translate(-34.87 -33.43)"/><path class="cls-25" d="M660.75,803.16l37,21.25,51-29.64V748.34L687.65,713.1l-40.91,23.49v31.88c6.74-4.48,12.33-9.51,18.51-14.55l32.48,18.47a383.38,383.38,0,0,1-37,30.77Z" transform="translate(-34.87 -33.43)"/><polygon class="cls-26" points="715.54 762.45 713.86 761.34 662.87 790.98 662.87 792.66 715.54 762.45"/><polygon class="cls-5" points="307.62 234.94 354.69 261.78 407.92 231.59 409.05 232.14 409.05 187.94 348.52 153.26 307.62 176.2 307.62 234.94"/><polygon class="cls-15" points="561.44 673.5 611.88 703.16 652.78 679.66 652.78 609.18 614.69 587.37 614.69 589.03 561.44 619.8 561.44 673.5"/><polygon class="cls-1" points="307.62 59.27 348.52 82.77 409.05 47.53 409.05 47.53 409.05 1.11 407.92 0 307.62 57.61 307.62 59.27"/><polygon class="cls-4" points="409.05 232.14 409.05 187.94 409.05 187.94 470.12 153.26 470.12 153.26 510.45 176.2 510.45 234.94 462.27 262.91 409.05 232.14"/><polygon class="cls-26" points="713.86 761.34 715.54 762.45 815.28 704.84 815.28 703.16 774.37 679.66 713.86 714.91 713.86 761.34"/><polygon class="cls-27" points="614.69 525.84 662.87 498.42 662.87 439.68 614.69 411.71 614.69 525.84"/><polygon class="cls-28" points="561.44 319.96 561.44 264.04 510.45 234.94 462.27 262.91 561.44 319.96"/><polygon class="cls-15" points="614.69 587.37 652.78 609.18 652.78 609.18 713.86 574.49 713.86 527.5 662.87 498.42 614.69 525.84 614.69 587.37"/><path class="cls-4" d="M505,116.2l40.33-23.49,51,29.1V166a337.81,337.81,0,0,0-47.07-17.35v37.5a187,187,0,0,1,23,8.38l-26.9,15.1L505,186.69V116.2Z" transform="translate(-34.87 -33.43)"/><path class="cls-29" d="M755.46,623a17.58,17.58,0,0,0,2.24-5.61,17.58,17.58,0,0,1-2.24,5.61Zm3.35-7.85a319.17,319.17,0,0,0,16.26-69.91l-26.35,15.65v47h0l10.66,6.16Zm50.43,27.42,40.91-23.5V560.93L812,539.12a375.54,375.54,0,0,1-21.85,94l.58-1.13Z" transform="translate(-34.87 -33.43)"/><polygon class="cls-30" points="614.12 350.75 662.87 322.77 662.87 264.04 611.88 234.94 561.44 264.04 561.44 319.96 614.12 350.75"/><polygon class="cls-31" points="470.12 82.77 510.45 59.27 409.05 1.11 409.05 47.53 470.12 82.77"/><polygon class="cls-32" points="614.69 411.71 662.87 439.68 713.86 410.6 713.86 351.86 662.87 322.77 614.12 350.75 614.69 350.75 614.69 411.71"/><path class="cls-9" d="M545.32,268.37l51,29.1,50.43-29.1V238.16a309.73,309.73,0,0,0-74.52-43.63l-26.9,15.1Z" transform="translate(-34.87 -33.43)"/><path class="cls-15" d="M697.73,531.85l51,29.08,26.35-15.65a341,341,0,0,0,2.79-42,387.14,387.14,0,0,0-2.79-44.2L748.72,444l-51,29.08Z" transform="translate(-34.87 -33.43)"/><path class="cls-25" d="M812,539.12l38.12,21.81h0V444h0l-38.67,21.81a274.85,274.85,0,0,1,2.24,37.48c0,12.3-.56,24.05-1.69,35.8Z" transform="translate(-34.87 -33.43)"/><path class="cls-8" d="M646.74,268.37l51,29.1,6.16-3.37a278.52,278.52,0,0,0-24.09-27.4,397.62,397.62,0,0,0-33.06-28.54Zm88.53,7.29,13.45-7.29V209.63l-51-29.08-38.09,22.36A368.08,368.08,0,0,1,705,241.52a442.9,442.9,0,0,1,30.25,34.14Z" transform="translate(-34.87 -33.43)"/><polygon class="cls-26" points="815.28 585.68 815.28 586.24 815.28 527.5 815.28 527.5 815.28 585.68"/><path class="cls-13" d="M697.73,356.21l51,29.08,6.16-3.37a318.58,318.58,0,0,0-51-87.82l-6.16,3.37Zm88.53,7.27,12.9-7.27V297.47l-50.44-29.1-13.45,7.29a380.82,380.82,0,0,1,51,87.82Z" transform="translate(-34.87 -33.43)"/><path class="cls-9" d="M659.64,202.91l38.09-22.36L596.31,121.81V166a360.22,360.22,0,0,1,63.33,36.91Z" transform="translate(-34.87 -33.43)"/><path class="cls-24" d="M748.72,444l26.35,15.09a347.44,347.44,0,0,0-20.19-77.2l-6.16,3.37Zm62.76,21.81L850.15,444V385.29l-51-29.08-12.9,7.27c12.9,32.45,21.85,66.56,25.22,102.36Z" transform="translate(-34.87 -33.43)"/><rect class="cls-33" x="815.28" y="351.86" height="58.74"/><polygon class="cls-34" points="713.86 234.94 764.29 264.04 815.28 234.94 713.86 176.2 713.86 234.94"/><polygon class="cls-15" points="764.29 322.77 815.28 351.86 815.28 351.86 815.28 234.94 815.28 234.94 764.29 264.04 764.29 322.77"/><polygon class="cls-35" points="774.37 679.66 815.28 703.16 815.28 703.16 815.28 586.24 815.28 585.68 774.37 609.18 774.37 679.66"/><rect class="cls-36" x="815.28" y="703.16" height="1.68"/><polygon class="cls-4" points="302.58 524.71 307.62 527.5 307.62 533.11 302.58 530.29 302.58 524.71"/><polygon class="cls-4" points="302.58 413.39 307.62 410.6 358.61 439.68 358.61 498.42 307.62 527.5 302.58 524.71 302.58 413.39"/><polygon class="cls-8" points="412.97 587.92 409.05 585.68 404 589.03 407.92 591.27 412.97 587.92"/><polygon class="cls-9" points="404 589.03 409.05 585.68 409.05 527.5 358.61 498.42 307.62 527.5 307.62 533.11 404 589.03"/><polygon class="cls-37" points="409.05 585.68 412.97 587.92 510.45 531.42 510.45 527.5 460.04 498.42 409.05 527.5 409.05 585.68"/><polygon class="cls-9" points="358.61 498.42 409.05 527.5 460.04 498.42 460.04 439.68 409.05 410.6 358.61 439.68 358.61 498.42"/><polygon class="cls-8" points="460.04 498.42 510.45 527.5 512.71 526.39 512.71 411.71 510.45 410.6 460.04 439.68 460.04 498.42"/><polygon class="cls-13" points="512.71 526.39 510.45 527.5 510.45 531.42 512.71 530.29 512.71 526.39"/><polygon class="cls-5" points="302.58 413.39 307.62 410.6 307.62 406.67 302.58 409.47 302.58 413.39"/><polygon class="cls-4" points="307.62 410.6 307.62 406.67 405.68 350.17 409.05 351.86 409.05 410.6 358.61 439.68 307.62 410.6"/><polygon class="cls-38" points="411.29 350.75 409.05 351.86 405.68 350.17 407.92 349.06 411.29 350.75"/><polygon class="cls-9" points="409.05 410.6 460.04 439.68 510.45 410.6 510.45 408.36 411.29 350.75 409.05 351.86 409.05 410.6"/><polygon class="cls-8" points="510.45 410.6 512.71 411.71 512.71 409.47 510.45 408.36 510.45 410.6"/><polygon class="cls-5" points="374.3 138.16 409.05 158.31 443.77 138.16 443.77 97.89 409.05 77.76 374.3 97.89 374.3 138.16"/><polygon class="cls-39" points="678.55 664.55 713.86 684.7 748.6 664.55 748.6 624.27 713.86 604.15 678.55 624.27 678.55 664.55"/><polygon class="cls-5" points="70.04 664.55 104.78 684.7 139.52 664.55 139.52 624.27 104.78 604.15 70.04 624.27 70.04 664.55"/></svg>