<?xml version="1.0" standalone="no"?>
<!DOCTYPE svg PUBLIC "-//W3C//DTD SVG 20010904//EN"
 "http://www.w3.org/TR/2001/REC-SVG-20010904/DTD/svg10.dtd">
<svg version="1.0" xmlns="http://www.w3.org/2000/svg"
 width="512.000000pt" height="512.000000pt" viewBox="0 0 512.000000 512.000000"
 preserveAspectRatio="xMidYMid meet">
<metadata>
Created by potrace 1.11, written by Peter Selinger 2001-2013
</metadata>
<g transform="translate(0.000000,512.000000) scale(0.100000,-0.100000)"
fill="#000000" stroke="none">
<path d="M2384 5110 c-1036 -74 -1922 -761 -2248 -1743 -146 -437 -170 -915
-70 -1367 193 -869 838 -1582 1687 -1864 437 -146 915 -170 1367 -70 632 141
1204 533 1564 1074 222 333 358 697 412 1100 22 167 22 473 0 640 -96 722
-473 1348 -1062 1767 -472 335 -1074 504 -1650 463z m1514 -1050 c173 -18 201
-52 210 -250 8 -190 -30 -414 -110 -655 -112 -338 -282 -619 -509 -842 -131
-130 -233 -203 -384 -278 -211 -105 -410 -162 -663 -188 l-114 -12 -97 -109
c-201 -228 -505 -449 -846 -616 -210 -102 -316 -133 -338 -98 -25 39 106 345
248 578 166 275 296 430 548 657 36 32 47 49 47 72 l0 30 -137 -66 c-229 -109
-615 -273 -644 -273 -15 0 -35 7 -43 16 -24 24 -20 109 8 169 38 82 425 784
473 860 88 136 163 193 292 221 71 15 247 18 324 5 l48 -8 49 61 c305 381 900
682 1434 726 50 4 96 8 101 8 6 1 52 -3 103 -8z m-558 -2245 c-21 -148 -73
-226 -214 -319 -97 -64 -842 -472 -899 -492 -47 -17 -110 -18 -138 -4 -13 7
-19 21 -19 44 0 29 102 278 230 563 36 81 28 76 165 88 273 25 602 139 810
283 l70 48 3 -65 c2 -36 -2 -102 -8 -146z"/>
<path d="M3580 3711 c-72 -23 -112 -76 -112 -151 0 -88 62 -152 150 -153 194
-3 214 278 22 307 -19 3 -46 1 -60 -3z"/>
<path d="M3035 3392 c-68 -33 -128 -93 -158 -161 -31 -69 -29 -178 5 -252 54
-117 159 -184 288 -184 96 1 169 33 234 106 60 66 80 129 74 228 -7 118 -59
201 -160 256 -44 24 -67 30 -138 33 -77 3 -90 1 -145 -26z"/>
</g>
</svg>
