<?xml version="1.0" standalone="no"?>
<!DOCTYPE svg PUBLIC "-//W3C//DTD SVG 20010904//EN"
 "http://www.w3.org/TR/2001/REC-SVG-20010904/DTD/svg10.dtd">
<svg version="1.0" xmlns="http://www.w3.org/2000/svg"
 width="512.000000pt" height="512.000000pt" viewBox="0 0 512.000000 512.000000"
 preserveAspectRatio="xMidYMid meet">
<metadata>
Created by potrace 1.11, written by Peter Selinger 2001-2013
</metadata>
<g transform="translate(0.000000,512.000000) scale(0.100000,-0.100000)"
fill="#000000" stroke="none">
<path d="M2325 5114 c-16 -2 -80 -11 -142 -20 -423 -58 -886 -259 -1227 -534
-436 -352 -753 -850 -886 -1392 -55 -222 -65 -318 -65 -608 0 -290 10 -386 65
-608 113 -460 371 -911 706 -1232 329 -316 740 -543 1176 -650 225 -55 318
-65 613 -65 234 1 287 4 399 23 273 47 483 115 721 231 518 254 923 659 1176
1176 116 239 184 448 231 721 30 175 33 606 5 782 -43 269 -118 506 -236 747
-371 756 -1074 1274 -1916 1411 -95 15 -545 28 -620 18z m1633 -2696 l-3 -743
-22 -35 c-12 -19 -37 -44 -55 -55 -33 -20 -51 -20 -1318 -20 l-1285 0 -35 22
c-19 12 -44 37 -55 55 -19 32 -20 53 -23 776 l-2 742 1400 0 1400 0 -2 -742z"/>
<path d="M2069 2931 c-30 -30 -31 -35 -27 -97 6 -96 23 -109 138 -109 80 0 92
2 112 23 20 19 23 33 23 92 0 99 -17 114 -130 119 -83 3 -85 3 -116 -28z"/>
<path d="M2429 2931 c-30 -30 -31 -35 -27 -97 6 -96 23 -109 138 -109 80 0 92
2 112 23 20 19 23 33 23 92 0 99 -17 114 -130 119 -83 3 -85 3 -116 -28z"/>
<path d="M2789 2931 c-30 -30 -31 -35 -27 -97 6 -96 23 -109 138 -109 80 0 92
2 112 23 20 19 23 33 23 92 0 99 -17 114 -130 119 -83 3 -85 3 -116 -28z"/>
<path d="M3149 2931 c-30 -30 -31 -35 -27 -97 6 -96 23 -109 138 -109 80 0 92
2 112 23 20 19 23 33 23 92 0 99 -17 114 -130 119 -83 3 -85 3 -116 -28z"/>
<path d="M3509 2931 c-30 -30 -31 -35 -27 -97 6 -96 23 -109 138 -109 80 0 92
2 112 23 20 19 23 33 23 92 0 99 -17 114 -130 119 -83 3 -85 3 -116 -28z"/>
<path d="M1349 2611 c-30 -30 -31 -35 -27 -97 6 -96 23 -109 138 -109 80 0 92
2 112 23 20 19 23 33 23 92 0 99 -17 114 -130 119 -83 3 -85 3 -116 -28z"/>
<path d="M1709 2611 c-30 -30 -31 -35 -27 -97 6 -96 23 -109 138 -109 80 0 92
2 112 23 20 19 23 33 23 92 0 99 -17 114 -130 119 -83 3 -85 3 -116 -28z"/>
<path d="M2069 2611 c-30 -30 -31 -35 -27 -97 6 -96 23 -109 138 -109 80 0 92
2 112 23 20 19 23 33 23 92 0 99 -17 114 -130 119 -83 3 -85 3 -116 -28z"/>
<path d="M2429 2611 c-30 -30 -31 -35 -27 -97 6 -96 23 -109 138 -109 80 0 92
2 112 23 20 19 23 33 23 92 0 99 -17 114 -130 119 -83 3 -85 3 -116 -28z"/>
<path d="M2789 2611 c-30 -30 -31 -35 -27 -97 6 -96 23 -109 138 -109 80 0 92
2 112 23 20 19 23 33 23 92 0 99 -17 114 -130 119 -83 3 -85 3 -116 -28z"/>
<path d="M3149 2611 c-30 -30 -31 -35 -27 -97 6 -96 23 -109 138 -109 80 0 92
2 112 23 20 19 23 33 23 92 0 99 -17 114 -130 119 -83 3 -85 3 -116 -28z"/>
<path d="M3509 2611 c-30 -30 -31 -35 -27 -97 6 -96 23 -109 138 -109 80 0 92
2 112 23 20 19 23 33 23 92 0 99 -17 114 -130 119 -83 3 -85 3 -116 -28z"/>
<path d="M1349 2291 c-30 -30 -31 -35 -27 -97 6 -96 23 -109 138 -109 80 0 92
2 112 23 20 19 23 33 23 92 0 99 -17 114 -130 119 -83 3 -85 3 -116 -28z"/>
<path d="M1709 2291 c-30 -30 -31 -35 -27 -97 6 -96 23 -109 138 -109 80 0 92
2 112 23 20 19 23 33 23 92 0 99 -17 114 -130 119 -83 3 -85 3 -116 -28z"/>
<path d="M2069 2291 c-30 -30 -31 -35 -27 -97 6 -96 23 -109 138 -109 80 0 92
2 112 23 20 19 23 33 23 92 0 99 -17 114 -130 119 -83 3 -85 3 -116 -28z"/>
<path d="M2429 2291 c-30 -30 -31 -35 -27 -97 6 -96 23 -109 138 -109 80 0 92
2 112 23 20 19 23 33 23 92 0 99 -17 114 -130 119 -83 3 -85 3 -116 -28z"/>
<path d="M2789 2291 c-30 -30 -31 -35 -27 -97 6 -96 23 -109 138 -109 80 0 92
2 112 23 20 19 23 33 23 92 0 99 -17 114 -130 119 -83 3 -85 3 -116 -28z"/>
<path d="M3149 2291 c-30 -30 -31 -35 -27 -97 6 -96 23 -109 138 -109 80 0 92
2 112 23 20 19 23 33 23 92 0 99 -17 114 -130 119 -83 3 -85 3 -116 -28z"/>
<path d="M3509 2291 c-30 -30 -31 -35 -27 -97 6 -96 23 -109 138 -109 80 0 92
2 112 23 20 19 23 33 23 92 0 99 -17 114 -130 119 -83 3 -85 3 -116 -28z"/>
<path d="M1349 1971 c-30 -30 -31 -35 -27 -97 6 -96 23 -109 138 -109 80 0 92
2 112 23 20 19 23 33 23 92 0 99 -17 114 -130 119 -83 3 -85 3 -116 -28z"/>
<path d="M1709 1971 c-30 -30 -31 -35 -27 -97 6 -96 23 -109 138 -109 80 0 92
2 112 23 20 19 23 33 23 92 0 99 -17 114 -130 119 -83 3 -85 3 -116 -28z"/>
<path d="M2069 1971 c-30 -30 -31 -35 -27 -97 6 -96 23 -109 138 -109 80 0 92
2 112 23 20 19 23 33 23 92 0 99 -17 114 -130 119 -83 3 -85 3 -116 -28z"/>
<path d="M2429 1971 c-30 -30 -31 -35 -27 -97 6 -96 23 -109 138 -109 80 0 92
2 112 23 20 19 23 33 23 92 0 99 -17 114 -130 119 -83 3 -85 3 -116 -28z"/>
<path d="M2789 1971 c-30 -30 -31 -35 -27 -97 6 -96 23 -109 138 -109 80 0 92
2 112 23 20 19 23 33 23 92 0 99 -17 114 -130 119 -83 3 -85 3 -116 -28z"/>
<path d="M3149 1971 c-30 -30 -31 -35 -27 -97 6 -96 23 -109 138 -109 80 0 92
2 112 23 20 19 23 33 23 92 0 99 -17 114 -130 119 -83 3 -85 3 -116 -28z"/>
</g>
</svg>
