<svg xmlns="http://www.w3.org/2000/svg" viewBox="0 0 4426.19 599.68"><defs><style>.a{isolation:isolate;}.b{fill:#545454;}.c{fill:#faa42f;}.aa,.ab,.ac,.ad,.ae,.af,.ag,.ah,.aj,.ak,.am,.an,.ao,.c,.d,.e,.f,.g,.h,.i,.j,.k,.l,.m,.n,.o,.p,.q,.r,.s,.t,.u,.v,.w,.x,.y,.z{fill-rule:evenodd;}.d{fill:#ddb02a;}.e{fill:#c47728;}.f{fill:#f15933;}.g{fill:#f37132;}.h{fill:#d6e042;}.i{fill:#fcea3b;}.j{fill:#e22574;}.k{fill:#ef3839;}.l{fill:#bbd64b;}.m{fill:#ffcf29;}.n{fill:#ee438d;}.o{fill:#cc3192;}.p{fill:#bd2025;}.q{fill:#9b3995;}.r{fill:#f1eb59;}.s{fill:#f7975f;}.t{fill:#d31f26;}.u{fill:#73206a;}.ai,.v{fill:#853a96;}.w{fill:#d98a26;}.x{fill:#8f4f9f;}.y{fill:#d24b9b;}.z{fill:#b263a7;}.aa{fill:#6b297a;}.ab{fill:#782a8f;}.ac{fill:#a01664;}.ad{fill:#c02026;}.ae{fill:#9051a0;}.af{fill:#b01b4a;}.ag{fill:#c54627;}.ah{fill:#a41768;}.aj{fill:#d1499a;}.ak{fill:#85459a;}.al{fill:#341144;}.am{fill:#ee3f8a;}.an{fill:#f4805f;}.ao{fill:#552263;}</style></defs><g class="a"><path class="b" d="M628.21,412.69V209.42h52.38l82.58,121.87V209.42h52.38V412.69H763.91l-83.32-121v121Z"/><path class="b" d="M859.45,311.06q0-30.75,8.57-52.23t23.19-32.1a95.53,95.53,0,0,1,30-15A123,123,0,0,1,955,207.34a168.91,168.91,0,0,1,70,15.18v42.11a163.93,163.93,0,0,0-62.14-12.5q-51.1,0-51.09,58.93,0,33.26,13.36,46.09T961.13,370q17.67,0,27.92-4.53V331.29H952.9V292.61h78v102.8Q997.71,414.78,955,414.77a143.49,143.49,0,0,1-26.84-2.38,87.71,87.71,0,0,1-25.5-9.46,76.92,76.92,0,0,1-22.3-18.18q-9.31-11.1-15.14-30T859.45,311.06Z"/><path class="b" d="M1080,412.69V209.42h52.38V412.69Z"/><path class="b" d="M1183.84,412.69V209.42h52.37l82.59,121.87V209.42h52.38V412.69h-51.64l-83.33-121v121Z"/><path class="b" d="M1402,412.69l72.17-103-70.68-100.3h64l38.39,54.91,38.69-54.91h60l-68.75,97.17,74.85,106.1h-64l-42.85-61-43,61Z"/><path class="b" d="M1742.14,412.69V209.42h82.44q37,0,57.39,18.75t20.43,52.53q0,33.87-20.44,52.5t-57.45,18.63h-30v60.86Zm52.38-103.57h25q15.76,0,23.13-8.41a29.3,29.3,0,0,0,7.37-20,30,30,0,0,0-7.29-19.94q-7.29-8.62-23.21-8.63h-25Z"/><path class="b" d="M1940.49,412.69V209.42h80.13q37.17,0,59.54,17.34t22.38,48.73q0,24.25-11.13,39.89a57.62,57.62,0,0,1-29.68,21.77l49.11,75.54h-58.46l-37.78-67.56h-21.73v67.56Zm52.38-107.29H2024a25.7,25.7,0,0,0,18.45-7.44q7.74-7.44,7.74-19,0-11.9-7.74-19.34a25.7,25.7,0,0,0-18.45-7.44h-31.1Z"/><path class="b" d="M2143.16,354.51q-5.8-18.9-5.8-43.6t5.8-43.6q5.81-18.9,15.1-30a76.91,76.91,0,0,1,22.25-18.15,87.45,87.45,0,0,1,25.44-9.45,151.91,151.91,0,0,1,53.57,0,87.4,87.4,0,0,1,25.45,9.45,76.87,76.87,0,0,1,22.24,18.15q9.3,11.1,15.11,30t5.8,43.6q0,24.7-5.8,43.6t-15.11,30A76.71,76.71,0,0,1,2285,402.64a86.83,86.83,0,0,1-25.45,9.45,151.91,151.91,0,0,1-53.57,0,86.88,86.88,0,0,1-25.44-9.45,76.75,76.75,0,0,1-22.25-18.15Q2149,373.41,2143.16,354.51Zm58.33-89.58q-11.76,12.79-11.75,46t11.75,46q11.76,12.8,31.25,12.79T2264,356.89q11.75-12.79,11.75-46t-11.75-46q-11.76-12.8-31.25-12.8T2201.49,264.93Z"/><path class="b" d="M2345.23,412.69l72.17-103-70.68-100.3h64l38.39,54.91,38.69-54.91h60L2479,306.59l74.84,106.1h-64l-42.86-61-43,61Z"/><path class="b" d="M2571.86,209.42h63.69l43.07,77.38,43.23-77.38h63.69l-80.65,117.71v85.56h-52.38V327.13Z"/><path class="b" d="M2919.91,412.69V209.42h51.48l47.92,69.2,47.76-69.2h51.49V412.69h-52.38V286.8l-46.87,67.41-47-67.41V412.69Z"/><path class="b" d="M3151.74,412.69l80.8-203.27h49.4l80.65,203.27h-56.4l-15.77-48.81h-66.51l-15.77,48.81Zm84.67-87.5h41.22l-20.39-63.09Z"/><path class="b" d="M3396.07,412.69V209.42h52.38L3531,331.29V209.42h52.38V412.69h-51.63l-83.33-121v121Z"/><path class="b" d="M3621.51,412.69l80.8-203.27h49.4l80.65,203.27H3776l-15.77-48.81h-66.51l-15.78,48.81Zm84.66-87.5h41.22L3727,262.1Z"/><path class="b" d="M3851.85,311.06q0-30.75,8.58-52.23t23.19-32.1a95.42,95.42,0,0,1,30.05-15,123,123,0,0,1,33.78-4.39,168.91,168.91,0,0,1,70,15.18v42.11a164,164,0,0,0-62.15-12.5q-51.09,0-51.09,58.93,0,33.26,13.37,46.09T3953.54,370q17.67,0,27.92-4.53V331.29H3945.3V292.61h78v102.8q-33.15,19.36-75.82,19.36a143.53,143.53,0,0,1-26.85-2.38,87.82,87.82,0,0,1-25.5-9.46,77.06,77.06,0,0,1-22.3-18.18q-9.32-11.1-15.13-30T3851.85,311.06Z"/><path class="b" d="M4072.08,412.69V209.42h141.66v42.71h-89.28v37.5H4202v42.7h-77.52V370h89.28v42.71Z"/><path class="b" d="M4255.85,412.69V209.42H4336q37.17,0,59.54,17.34t22.37,48.73q0,24.25-11.13,39.89a57.64,57.64,0,0,1-29.67,21.77l49.1,75.54h-58.45L4330,345.13h-21.72v67.56Zm52.38-107.29h31.1a25.7,25.7,0,0,0,18.45-7.44q7.73-7.44,7.73-19,0-11.9-7.73-19.34a25.7,25.7,0,0,0-18.45-7.44h-31.1Z"/></g><polygon class="c" points="2.14 450.82 2.14 448.69 0 447.61 0 449.76 2.14 450.82"/><polygon class="d" points="0 375.15 2.14 373.73 2.14 336.6 0 335.54 0 375.15"/><polygon class="e" points="0 447.61 2.14 448.69 27.89 433.7 27.89 388.72 2.14 373.73 0 375.15 0 447.61"/><polygon class="f" points="64.71 487.23 66.86 485.82 99.04 504.73 99.04 506.88 64.71 487.23"/><polygon class="g" points="64.71 487.23 66.86 485.82 66.86 456.19 27.89 433.7 2.14 448.69 2.14 450.82 64.71 487.23"/><polygon class="h" points="0 263.08 2.14 262 2.14 224.52 0 223.45 0 263.08"/><path class="i" d="M0,335.54l2.14,1.07,22.53-12.84a177.22,177.22,0,0,1-1.44-23.93c0-8.22.71-16.79,1.43-25L2.14,262,0,263.08Z"/><path class="c" d="M2.14,374.08l25.75,14.64,39-22.13h0v-30l-19-11.06a126.31,126.31,0,0,0,2.5,16.07L29.68,353.74a174.15,174.15,0,0,1-5-30L2.14,336.61Z"/><path class="f" d="M66.86,485.82V456.19h0l10.37-6.07-.36-.36c5,6.07,10.37,11.77,15.73,17.13a240.72,240.72,0,0,0,29,24.63L99.08,504.73Zm38.61-52.12,26.11,15v21.77a170.35,170.35,0,0,1-22.53-19.63,130.48,130.48,0,0,1-11.82-12.5Z"/><polygon class="j" points="196.29 562.91 196.29 560.41 163.76 541.86 161.97 542.93 196.29 562.91"/><path class="k" d="M162,542.93l1.79-1.07V515.79a225.86,225.86,0,0,1-42.2-24.27L99,504.73v2.15Z"/><polygon class="l" points="0 150.99 2.14 149.91 2.14 148.85 0 149.91 0 150.99"/><polygon class="h" points="0 223.45 2.14 224.52 34.33 205.96 34.33 168.48 2.14 149.91 0 150.99 0 223.45"/><path class="m" d="M2.14,262l22.53,12.85a244.12,244.12,0,0,1,16.45-65l-6.79-3.91L2.14,224.52Zm45.77,10.71,19-10.71V224.52l-5.72-3.22A209.07,209.07,0,0,0,47.91,272.71Z"/><path class="c" d="M47.91,325.54l19,11.07L99,318.05V280.61L66.86,262.05l-19,10.66a225.8,225.8,0,0,0-1.78,27.13,202.62,202.62,0,0,0,1.78,25.7Z"/><polygon class="f" points="105.47 388.72 128 375.86 128 375.86 163.76 396.57 163.76 429.76 131.57 448.69 105.47 433.7 105.47 388.72 105.47 388.72"/><path class="n" d="M163.76,541.86l32.54,18.55,32.53-18.55v-7.5a235,235,0,0,1-65.07-18.57Zm65.07-30.71v-6.42L196.3,485.82l-19,11.06a203.27,203.27,0,0,0,51.49,14.27Z"/><polygon class="g" points="105.47 388.72 128 375.86 128 334.46 99.04 318.04 66.86 336.6 66.86 366.58 105.47 388.72"/><polygon class="o" points="258.87 598.97 261.01 597.89 261.01 560.41 228.83 541.86 196.29 560.41 196.29 562.91 258.87 598.97"/><path class="p" d="M177.34,496.88l19-11.06V448.69L163.8,429.77l-32.18,18.92v21.77a201.38,201.38,0,0,0,45.76,26.42Z"/><polygon class="q" points="262.07 598.61 261.01 597.89 258.87 598.97 260.29 599.68 262.07 598.61"/><polygon class="r" points="2.14 149.91 34.33 168.48 66.86 149.91 66.86 112.43 65.79 112.08 2.14 148.85 2.14 149.91"/><path class="i" d="M34.33,206l6.79,3.91a235.92,235.92,0,0,1,32.54-56l-6.8-3.94L34.33,168.48ZM61.14,221.3l5.72,3.22L99,206V168.48l-5.36-2.87a221.14,221.14,0,0,0-32.54,55.67Z"/><polygon class="c" points="66.86 262 99.04 280.56 128 263.79 128 223.81 129.07 223.09 99.04 205.96 66.86 224.52 66.86 262"/><polygon class="j" points="196.29 485.82 228.83 504.73 261.01 485.82 261.01 451.55 260.29 451.9 225.25 431.91 196.29 448.69 196.29 485.82"/><polygon class="s" points="99.04 318.04 128 334.46 128 263.79 99.04 280.56 99.04 318.04"/><path class="o" d="M228.83,541.86,261,560.41l32.53-18.55V534a260.49,260.49,0,0,1-33.26,2.13,297.94,297.94,0,0,1-31.46-1.78Zm64.72-31.06v-6.07L261,485.82l-32.19,18.91v6.42a225.23,225.23,0,0,0,31.46,2.15A209.19,209.19,0,0,0,293.55,510.8Z"/><polygon class="t" points="163.76 429.76 196.29 448.69 225.25 431.91 163.76 396.57 163.76 429.76"/><polygon class="u" points="261.01 597.89 262.07 598.61 325.72 561.84 325.72 560.41 293.55 541.86 261.01 560.41 261.01 597.89"/><polygon class="h" points="65.79 112.08 66.86 112.43 99.04 93.88 99.04 92.8 65.79 112.08"/><path class="m" d="M66.86,149.91l6.8,3.94c6.07-7.5,12.51-14.28,18.94-21.06a226.17,226.17,0,0,1,30-25.35L99,93.88,66.82,112.43Zm26.82,15.7L99,168.46l32.54-18.57V129.22a170.35,170.35,0,0,0-22.53,19.63c-5.36,5.35-10.36,10.7-15.37,16.78Z"/><polygon class="c" points="99.04 205.96 129.07 223.09 163.76 203.11 163.76 168.48 131.57 149.91 99.04 168.48 99.04 205.96"/><polygon class="v" points="359.33 542.56 358.26 541.86 325.72 560.41 325.72 561.84 359.33 542.56"/><polygon class="o" points="261.01 485.82 293.55 504.73 325.72 485.82 325.72 448.69 296.05 431.19 261.01 451.55 261.01 485.82"/><path class="q" d="M293.55,541.86l32.17,18.55,32.51-18.55V515.08A237.66,237.66,0,0,1,293.52,534ZM344,496.52l-18.24-10.7-32.17,18.91v6.07A215.55,215.55,0,0,0,344,496.52Z"/><path class="m" d="M99,93.88l23.6,13.56a235,235,0,0,1,41.12-23.56V56.39L163,56,99,92.8Z"/><path class="w" d="M131.58,149.91l32.18,18.57,32.54-18.57V112.43l-17.52-10a204.09,204.09,0,0,0-47.2,26.79Z"/><path class="x" d="M358.23,541.86l1.07.7L423,505.8v-1.07l-23.6-13.56a248.44,248.44,0,0,1-41.12,23.91Z"/><polygon class="g" points="226.33 167.04 196.29 149.91 163.76 168.48 163.76 203.11 226.33 167.04"/><polygon class="y" points="296.05 431.19 325.72 448.69 358.26 429.76 358.26 395.5 296.05 431.19"/><path class="z" d="M325.72,485.82,344,496.52A202,202,0,0,0,390.44,469V448.69l-32.21-18.92-32.54,18.92Z"/><polygon class="m" points="163.04 56.04 163.76 56.39 196.29 37.82 196.29 36.76 163.04 56.04"/><path class="c" d="M178.78,102.43l17.52,10L222.39,97.8V89.61l1.44-.35a211.67,211.67,0,0,0-45.05,13.19Zm43.61-49.61-26.09-15L163.76,56.38V83.87a247.45,247.45,0,0,1,58.63-17.49Z"/><path class="aa" d="M399.38,491.17,423,504.73l32.53-18.91V456.19l-39-22.49-26.1,15V469c4.3-2.86,7.86-6.07,11.81-9.28L423,471.54a243.23,243.23,0,0,1-23.6,19.64Z"/><polygon class="ab" points="456.59 486.52 455.51 485.82 422.98 504.73 422.98 505.8 456.59 486.52"/><polygon class="g" points="196.29 149.91 226.33 167.04 260.29 147.78 261.01 148.13 261.01 119.93 222.39 97.79 196.29 112.43 196.29 149.91"/><polygon class="q" points="358.26 429.76 390.44 448.69 416.54 433.7 416.54 388.72 392.23 374.8 392.23 375.86 358.26 395.5 358.26 429.76"/><polygon class="c" points="196.29 37.82 222.39 52.81 261.01 30.33 261.01 30.33 261.01 0.71 260.29 0 196.29 36.76 196.29 37.82"/><polygon class="f" points="261.01 148.13 261.01 119.93 261.01 119.93 299.98 97.79 299.98 97.79 325.72 112.43 325.72 149.91 294.98 167.76 261.01 148.13"/><polygon class="ab" points="455.51 485.82 456.59 486.52 520.23 449.76 520.23 448.69 494.13 433.7 455.51 456.19 455.51 485.82"/><polygon class="ac" points="392.23 335.54 422.98 318.04 422.98 280.56 392.23 262.71 392.23 335.54"/><polygon class="ad" points="358.26 204.17 358.26 168.48 325.72 149.91 294.98 167.76 358.26 204.17"/><polygon class="q" points="392.23 374.8 416.54 388.72 416.54 388.72 455.51 366.58 455.51 336.6 422.98 318.04 392.23 335.54 392.23 374.8"/><path class="f" d="M300,52.82l25.73-15,32.51,18.57V84.61a215,215,0,0,0-30-11.08V97.46a118.9,118.9,0,0,1,14.66,5.35l-17.17,9.63L300,97.81v-45Z"/><path class="ae" d="M459.81,376.23a11.21,11.21,0,0,0,1.42-3.62,11,11,0,0,1-1.43,3.58Zm2.14-5a203.46,203.46,0,0,0,10.38-44.62l-16.82,10v30h0l6.8,3.93Zm32.18,17.5,26.1-15V336.61l-24.32-13.92a239.3,239.3,0,0,1-13.94,60l.37-.72Z"/><polygon class="af" points="391.87 223.81 422.98 205.96 422.98 168.48 390.44 149.91 358.26 168.48 358.26 204.17 391.87 223.81"/><polygon class="ag" points="299.98 52.81 325.72 37.82 261.01 0.71 261.01 30.33 299.98 52.81"/><polygon class="ah" points="392.23 262.71 422.98 280.56 455.51 262 455.51 224.52 422.98 205.96 391.87 223.81 392.23 223.81 392.23 262.71"/><path class="k" d="M325.72,149.91l32.51,18.57,32.18-18.57v-19.3a197.33,197.33,0,0,0-47.55-27.84l-17.17,9.63Z"/><path class="q" d="M423,318l32.53,18.57,16.82-10a217.89,217.89,0,0,0,1.78-26.77,246.63,246.63,0,0,0-1.78-28.23L455.51,262,423,280.61Z"/><path class="aa" d="M495.91,322.68l24.32,13.93h0V262h0l-24.67,13.92A175.45,175.45,0,0,1,497,299.85c0,7.85-.36,15.35-1.08,22.84Z"/><path class="j" d="M390.44,149.91,423,168.48l3.93-2.14a178.55,178.55,0,0,0-15.37-17.49,255.88,255.88,0,0,0-21.1-18.24Zm56.49,4.7,8.58-4.66V112.43L423,93.88l-24.31,14.27a234.25,234.25,0,0,1,29,24.64A281,281,0,0,1,446.93,154.61Z"/><polygon class="ab" points="520.23 373.73 520.23 374.08 520.23 336.6 520.23 336.6 520.23 373.73"/><path class="o" d="M423,206l32.53,18.55,3.93-2.15a203.11,203.11,0,0,0-32.53-56L423,168.51Zm56.49,4.64L487.7,206v-37.5l-32.19-18.57-8.58,4.7A242.79,242.79,0,0,1,479.47,210.61Z"/><path class="k" d="M398.67,108.15,423,93.88,358.23,56.39V84.61a228.81,228.81,0,0,1,40.41,23.55Z"/><path class="z" d="M455.51,262l16.82,9.61a222.13,222.13,0,0,0-12.89-49.27l-3.93,2.15Zm40.05,13.92L520.23,262V224.52L487.7,206l-8.23,4.64a236.36,236.36,0,0,1,16.09,65.32Z"/><rect class="ai" x="520.23" y="224.52" height="37.48"/><polygon class="aj" points="455.51 149.91 487.69 168.48 520.23 149.91 455.51 112.43 455.51 149.91"/><polygon class="q" points="487.69 205.96 520.23 224.52 520.23 224.52 520.23 149.91 520.23 149.91 487.69 168.48 487.69 205.96"/><polygon class="ak" points="494.13 433.7 520.23 448.69 520.23 448.69 520.23 374.08 520.23 373.73 494.13 388.72 494.13 433.7"/><rect class="al" x="520.23" y="448.69" height="1.07"/><polygon class="f" points="193.08 334.82 196.29 336.6 196.29 340.18 193.08 338.38 193.08 334.82"/><polygon class="f" points="193.08 263.79 196.29 262 228.83 280.56 228.83 318.04 196.29 336.6 193.08 334.82 193.08 263.79"/><polygon class="j" points="263.52 375.15 261.01 373.73 257.79 375.86 260.29 377.29 263.52 375.15"/><polygon class="k" points="257.79 375.86 261.01 373.73 261.01 336.6 228.83 318.04 196.29 336.6 196.29 340.18 257.79 375.86"/><polygon class="am" points="261.01 373.73 263.52 375.15 325.72 339.1 325.72 336.6 293.55 318.04 261.01 336.6 261.01 373.73"/><polygon class="k" points="228.83 318.04 261.01 336.6 293.55 318.04 293.55 280.56 261.01 262 228.83 280.56 228.83 318.04"/><polygon class="j" points="293.55 318.04 325.72 336.6 327.16 335.89 327.16 262.71 325.72 262 293.55 280.56 293.55 318.04"/><polygon class="o" points="327.16 335.89 325.72 336.6 325.72 339.1 327.16 338.38 327.16 335.89"/><polygon class="g" points="193.08 263.79 196.29 262 196.29 259.5 193.08 261.28 193.08 263.79"/><polygon class="f" points="196.29 262 196.29 259.5 258.87 223.45 261.01 224.52 261.01 262 228.83 280.56 196.29 262"/><polygon class="an" points="262.44 223.81 261.01 224.52 258.87 223.45 260.29 222.74 262.44 223.81"/><polygon class="k" points="261.01 262 293.55 280.56 325.72 262 325.72 260.57 262.44 223.81 261.01 224.52 261.01 262"/><polygon class="j" points="325.72 262 327.16 262.71 327.16 261.28 325.72 260.57 325.72 262"/><polygon class="g" points="238.84 88.16 261.01 101.02 283.17 88.16 283.17 62.46 261.01 49.62 238.84 62.46 238.84 88.16"/><polygon class="ao" points="432.99 424.05 455.51 436.91 477.69 424.05 477.69 398.35 455.51 385.51 432.99 398.35 432.99 424.05"/><polygon class="g" points="44.69 424.05 66.86 436.91 89.03 424.05 89.03 398.35 66.86 385.51 44.69 398.35 44.69 424.05"/></svg>