<?xml version="1.0" encoding="UTF-8"?>
<svg width="520" height="600" version="1.1" viewBox="0 0 520 600" xmlns="http://www.w3.org/2000/svg">
 <defs>
  <style>.a{isolation:isolate;}.b{fill:#545454;}.c{fill:#faa42f;}.aa,.ab,.ac,.ad,.ae,.af,.ag,.ah,.aj,.ak,.am,.an,.ao,.c,.d,.e,.f,.g,.h,.i,.j,.k,.l,.m,.n,.o,.p,.q,.r,.s,.t,.u,.v,.w,.x,.y,.z{fill-rule:evenodd;}.d{fill:#ddb02a;}.e{fill:#c47728;}.f{fill:#f15933;}.g{fill:#f37132;}.h{fill:#d6e042;}.i{fill:#fcea3b;}.j{fill:#e22574;}.k{fill:#ef3839;}.l{fill:#bbd64b;}.m{fill:#ffcf29;}.n{fill:#ee438d;}.o{fill:#cc3192;}.p{fill:#bd2025;}.q{fill:#9b3995;}.r{fill:#f1eb59;}.s{fill:#f7975f;}.t{fill:#d31f26;}.u{fill:#73206a;}.ai,.v{fill:#853a96;}.w{fill:#d98a26;}.x{fill:#8f4f9f;}.y{fill:#d24b9b;}.z{fill:#b263a7;}.aa{fill:#6b297a;}.ab{fill:#782a8f;}.ac{fill:#a01664;}.ad{fill:#c02026;}.ae{fill:#9051a0;}.af{fill:#b01b4a;}.ag{fill:#c54627;}.ah{fill:#a41768;}.aj{fill:#d1499a;}.ak{fill:#85459a;}.al{fill:#341144;}.am{fill:#ee3f8a;}.an{fill:#f4805f;}.ao{fill:#552263;}</style>
 </defs>
 <polygon class="c" points="2.14 451 2.14 449 0 448 0 450"/>
 <polygon class="d" points="0 375 2.14 374 2.14 337 0 336"/>
 <polygon class="e" points="27.9 434 27.9 389 2.14 374 0 375 0 448 2.14 449"/>
 <polygon class="f" points="64.7 487 66.9 486 99 505 99 507"/>
 <polygon class="g" points="66.9 456 27.9 434 2.14 449 2.14 451 64.7 487 66.9 486"/>
 <polygon class="h" points="0 263 2.14 262 2.14 225 0 223"/>
 <path class="i" d="m0 336 2.14 1.07 22.5-12.8a177 177 0 0 1-1.44-23.9c0-8.22 0.71-16.8 1.43-25l-22.5-12.8-2.14 1.08z"/>
 <path class="c" d="m2.14 374 25.8 14.6 39-22.1v-30l-19-11.1a126 126 0 0 0 2.5 16.1l-20.7 12.1a174 174 0 0 1-5-30l-22.5 12.9z"/>
 <path class="f" d="m66.9 486v-29.6l10.4-6.07-0.36-0.36c5 6.07 10.4 11.8 15.7 17.1a241 241 0 0 0 29 24.6l-22.5 13.2zm38.6-52.1 26.1 15v21.8a170 170 0 0 1-22.5-19.6 130 130 0 0 1-11.8-12.5z"/>
 <polygon class="j" points="196 563 196 560 164 542 162 543"/>
 <path class="k" d="m162 543 1.79-1.07v-26.1a226 226 0 0 1-42.2-24.3l-22.6 13.2v2.15z"/>
 <polygon class="l" points="0 151 2.14 150 2.14 149 0 150"/>
 <polygon class="h" points="34.3 206 34.3 168 2.14 150 0 151 0 223 2.14 225"/>
 <path class="m" d="m2.14 262 22.5 12.8a244 244 0 0 1 16.4-65l-6.79-3.91-32.2 18.6zm45.8 10.7 19-10.7v-37.5l-5.72-3.22a209 209 0 0 0-13.3 51.4z"/>
 <path class="c" d="m47.9 326 19 11.1 32.1-18.6v-37.4l-32.1-18.6-19 10.7a226 226 0 0 0-1.78 27.1 203 203 0 0 0 1.78 25.7z"/>
 <polygon class="f" points="128 376 164 397 164 430 132 449 105 434 105 389"/>
 <path class="n" d="m164 542 32.5 18.6 32.5-18.6v-7.5a235 235 0 0 1-65.1-18.6zm65.1-30.7v-6.42l-32.5-18.9-19 11.1a203 203 0 0 0 51.5 14.3z"/>
 <polygon class="g" points="128 334 99 318 66.9 337 66.9 367 105 389 128 376"/>
 <polygon class="o" points="261 560 229 542 196 560 196 563 259 599 261 598"/>
 <path class="p" d="m177 497 19-11.1v-37.1l-32.5-18.9-32.2 18.9v21.8a201 201 0 0 0 45.8 26.4z"/>
 <polygon class="q" points="262 599 261 598 259 599 260 600"/>
 <polygon class="r" points="66.9 150 66.9 112 65.8 112 2.14 149 2.14 150 34.3 168"/>
 <path class="i" d="m34.3 206 6.79 3.91a236 236 0 0 1 32.5-56l-6.8-3.94-32.5 18.5zm26.8 15.3 5.72 3.22 32.1-18.5v-37.5l-5.36-2.87a221 221 0 0 0-32.5 55.7z"/>
 <polygon class="c" points="99 206 66.9 225 66.9 262 99 281 128 264 128 224 129 223"/>
 <polygon class="j" points="225 432 196 449 196 486 229 505 261 486 261 452 260 452"/>
 <polygon class="s" points="99 318 128 334 128 264 99 281"/>
 <path class="o" d="m229 542 32.2 18.6 32.5-18.6v-7.86a260 260 0 0 1-33.3 2.13 298 298 0 0 1-31.5-1.78zm64.7-31.1v-6.07l-32.6-18.9-32.2 18.9v6.42a225 225 0 0 0 31.5 2.15 209 209 0 0 0 33.3-2.5z"/>
 <polygon class="t" points="164 430 196 449 225 432 164 397"/>
 <polygon class="u" points="326 562 326 560 294 542 261 560 261 598 262 599"/>
 <polygon class="h" points="65.8 112 66.9 112 99 93.9 99 92.8"/>
 <path class="m" d="m66.9 150 6.8 3.94c6.07-7.5 12.5-14.3 18.9-21.1a226 226 0 0 1 30-25.4l-23.6-13.6-32.2 18.6zm26.8 15.7 5.32 2.85 32.5-18.6v-20.7a170 170 0 0 0-22.5 19.6c-5.36 5.35-10.4 10.7-15.4 16.8z"/>
 <polygon class="c" points="164 203 164 168 132 150 99 168 99 206 129 223"/>
 <polygon class="v" points="359 543 358 542 326 560 326 562"/>
 <polygon class="o" points="326 486 326 449 296 431 261 452 261 486 294 505"/>
 <path class="q" d="m294 542 32.2 18.6 32.5-18.6v-26.8a238 238 0 0 1-64.7 18.9zm50.4-45.3-18.2-10.7-32.2 18.9v6.07a216 216 0 0 0 50.4-14.3z"/>
 <path class="m" d="m99 93.9 23.6 13.6a235 235 0 0 1 41.1-23.6v-27.5l-0.72-0.39-64 36.8z"/>
 <path class="w" d="m132 150 32.2 18.6 32.5-18.6v-37.5l-17.5-10a204 204 0 0 0-47.2 26.8z"/>
 <path class="x" d="m358 542 1.07 0.7 63.7-36.8v-1.07l-23.6-13.6a248 248 0 0 1-41.1 23.9z"/>
 <polygon class="g" points="226 167 196 150 164 168 164 203"/>
 <polygon class="y" points="296 431 326 449 358 430 358 396"/>
 <path class="z" d="m326 486 18.3 10.7a202 202 0 0 0 46.4-27.5v-20.3l-32.2-18.9-32.5 18.9z"/>
 <polygon class="m" points="163 56 164 56.4 196 37.8 196 36.8"/>
 <path class="c" d="m179 102 17.5 10 26.1-14.6v-8.19l1.44-0.35a212 212 0 0 0-45 13.2zm43.6-49.6-26.1-15-32.5 18.6v27.5a247 247 0 0 1 58.6-17.5z"/>
 <path class="aa" d="m399 491 23.6 13.6 32.5-18.9v-29.6l-39-22.5-26.1 15v20.3c4.3-2.86 7.86-6.07 11.8-9.28l20.8 11.8a243 243 0 0 1-23.6 19.6z"/>
 <polygon class="ab" points="457 487 456 486 423 505 423 506"/>
 <polygon class="g" points="222 97.8 196 112 196 150 226 167 260 148 261 148 261 120"/>
 <polygon class="q" points="392 376 358 396 358 430 390 449 417 434 417 389 392 375"/>
 <polygon class="c" points="222 52.8 261 30.3 261 0.71 260 0 196 36.8 196 37.8"/>
 <polygon class="f" points="261 148 261 120 300 97.8 326 112 326 150 295 168"/>
 <polygon class="ab" points="520 450 520 449 494 434 456 456 456 486 457 487"/>
 <polygon class="ac" points="392 336 423 318 423 281 392 263"/>
 <polygon class="ad" points="358 204 358 168 326 150 295 168"/>
 <polygon class="q" points="417 389 456 367 456 337 423 318 392 336 392 375"/>
 <path class="f" d="m300 52.8 25.7-15 32.5 18.6v28.2a215 215 0 0 0-30-11.1v23.9a119 119 0 0 1 14.7 5.35l-17.2 9.63-25.7-14.6v-45z"/>
 <path class="ae" d="m460 376a11.2 11.2 0 0 0 1.42-3.62 11 11 0 0 1-1.43 3.58zm2.14-5a203 203 0 0 0 10.4-44.6l-16.8 10v30l6.8 3.93zm32.2 17.5 26.1-15v-37.1l-24.3-13.9a239 239 0 0 1-13.9 60l0.37-0.72z"/>
 <polygon class="af" points="423 168 390 150 358 168 358 204 392 224 423 206"/>
 <polygon class="ag" points="300 52.8 326 37.8 261 0.71 261 30.3"/>
 <polygon class="ah" points="392 224 392 224 392 263 423 281 456 262 456 225 423 206"/>
 <path class="k" d="m326 150 32.5 18.6 32.2-18.6v-19.3a197 197 0 0 0-47.6-27.8l-17.2 9.63z"/>
 <path class="q" d="m423 318 32.5 18.6 16.8-10a218 218 0 0 0 1.78-26.8 247 247 0 0 0-1.78-28.2l-16.8-9.57-32.5 18.6z"/>
 <path class="aa" d="m496 323 24.3 13.9v-74.6l-24.7 13.9a175 175 0 0 1 1.44 23.9c0 7.85-0.36 15.4-1.08 22.8z"/>
 <path class="j" d="m390 150 32.6 18.6 3.93-2.14a179 179 0 0 0-15.4-17.5 256 256 0 0 0-21.1-18.2zm56.5 4.7 8.58-4.66v-37.5l-32.5-18.6-24.3 14.3a234 234 0 0 1 29 24.6 281 281 0 0 1 19.2 21.8z"/>
 <polygon class="ab" points="520 374 520 337 520 374"/>
 <path class="o" d="m423 206 32.5 18.6 3.93-2.15a203 203 0 0 0-32.5-56l-3.93 2.11zm56.5 4.64 8.21-4.64v-37.5l-32.2-18.6-8.58 4.7a243 243 0 0 1 32.5 56z"/>
 <path class="k" d="m399 108 24.3-14.3-64.8-37.5v28.2a229 229 0 0 1 40.4 23.6z"/>
 <path class="z" d="m456 262 16.8 9.61a222 222 0 0 0-12.9-49.3l-3.93 2.15zm40 13.9 24.7-13.9v-37.5l-32.5-18.5-8.23 4.64a236 236 0 0 1 16.1 65.3z"/>
 <rect class="ai" x="520" y="225" width="0" height="37.5"/>
 <polygon class="aj" points="456 150 488 168 520 150 456 112"/>
 <polygon class="q" points="520 150 488 168 488 206 520 225"/>
 <polygon class="ak" points="520 374 520 374 494 389 494 434 520 449"/>
 <rect class="al" x="520" y="449" width="0" height="1.07"/>
 <polygon class="f" points="193 335 196 337 196 340 193 338"/>
 <polygon class="f" points="229 281 229 318 196 337 193 335 193 264 196 262"/>
 <polygon class="j" points="264 375 261 374 258 376 260 377"/>
 <polygon class="k" points="261 337 229 318 196 337 196 340 258 376 261 374"/>
 <polygon class="am" points="326 339 326 337 294 318 261 337 261 374 264 375"/>
 <polygon class="k" points="294 318 294 281 261 262 229 281 229 318 261 337"/>
 <polygon class="j" points="327 336 327 263 326 262 294 281 294 318 326 337"/>
 <polygon class="o" points="327 336 326 337 326 339 327 338"/>
 <polygon class="g" points="193 264 196 262 196 260 193 261"/>
 <polygon class="f" points="259 223 261 225 261 262 229 281 196 262 196 260"/>
 <polygon class="an" points="262 224 261 225 259 223 260 223"/>
 <polygon class="k" points="326 262 326 261 262 224 261 225 261 262 294 281"/>
 <polygon class="j" points="326 262 327 263 327 261 326 261"/>
 <polygon class="g" points="283 88.2 283 62.5 261 49.6 239 62.5 239 88.2 261 101"/>
 <polygon class="ao" points="478 424 478 398 456 386 433 398 433 424 456 437"/>
 <polygon class="g" points="89 424 89 398 66.9 386 44.7 398 44.7 424 66.9 437"/>
</svg>
