<svg width="1288" height="1534" viewBox="0 0 1288 1534" fill="none" xmlns="http://www.w3.org/2000/svg">
<path fill-rule="evenodd" clip-rule="evenodd" d="M152.087 859.287V855.213L148 853.169V857.256L152.087 859.287Z" fill="#FAA42F"/>
<path fill-rule="evenodd" clip-rule="evenodd" d="M148 715.053L152.087 712.329V641.568L148 639.549V715.053Z" fill="#DDB02A"/>
<path fill-rule="evenodd" clip-rule="evenodd" d="M148 853.169L152.087 855.213L201.15 826.631V740.91L152.087 712.329L148 715.053V853.169Z" fill="#C47728"/>
<path fill-rule="evenodd" clip-rule="evenodd" d="M271.351 928.674L275.438 925.974L336.773 962.023V966.122L271.351 928.674Z" fill="#F15933"/>
<path fill-rule="evenodd" clip-rule="evenodd" d="M271.351 928.674L275.438 925.974V869.504L201.15 826.631L152.086 855.213V859.287L271.351 928.674Z" fill="#F37132"/>
<path fill-rule="evenodd" clip-rule="evenodd" d="M148 501.432L152.087 499.389V427.947L148 425.892V501.432Z" fill="#D6E042"/>
<path fill-rule="evenodd" clip-rule="evenodd" d="M148 639.549L152.074 641.568L195.008 617.085C193.072 601.969 192.166 586.739 192.296 571.5C192.296 555.835 193.658 539.501 195.008 523.872L152.074 499.353L148 501.396V639.549Z" fill="#FCEA3B"/>
<path fill-rule="evenodd" clip-rule="evenodd" d="M152.075 713.01L201.15 740.91L275.438 698.719V641.556L239.304 620.49C239.997 630.707 242.04 640.899 244.083 651.103L204.556 674.212C199.724 655.47 196.529 636.343 195.008 617.048L152.075 641.531V713.01Z" fill="#FAA42F"/>
<path fill-rule="evenodd" clip-rule="evenodd" d="M275.438 925.974V869.504L295.189 857.937L294.52 857.268C304.056 868.822 314.272 879.696 324.501 889.912C341.631 906.989 360.087 922.683 379.694 936.847L336.76 962.023L275.438 925.974ZM349.032 826.643L398.777 855.213V896.711C383.401 885.513 369.035 872.99 355.843 859.287C347.826 851.862 340.313 843.911 333.355 835.485L349.032 826.643Z" fill="#F15933"/>
<path fill-rule="evenodd" clip-rule="evenodd" d="M522.14 1072.93V1068.16L460.124 1032.8L456.719 1034.84L522.14 1072.93Z" fill="#E22574"/>
<path fill-rule="evenodd" clip-rule="evenodd" d="M456.719 1034.84L460.124 1032.8V983.113C431.728 970.648 404.762 955.152 379.694 936.896L336.761 962.072V966.171L456.719 1034.84Z" fill="#EF3839"/>
<path fill-rule="evenodd" clip-rule="evenodd" d="M148 287.787L152.087 285.744V283.713L148 285.744V287.787Z" fill="#BBD64B"/>
<path fill-rule="evenodd" clip-rule="evenodd" d="M148 425.891L152.087 427.947L213.422 392.566V321.136L152.087 285.744L148 287.787V425.891Z" fill="#D6E042"/>
<path fill-rule="evenodd" clip-rule="evenodd" d="M152.075 499.353L195.008 523.835C199.725 481.327 210.28 439.672 226.375 400.046L213.422 392.579L152.075 427.947V499.353ZM239.304 519.761L275.438 499.353V427.947L264.492 421.805C251.958 453.266 243.482 486.195 239.267 519.798L239.304 519.761Z" fill="#FFCF29"/>
<path fill-rule="evenodd" clip-rule="evenodd" d="M239.303 620.49L275.438 641.568L336.76 606.199V534.757L275.438 499.353L239.303 519.761C237.139 536.912 236.005 554.177 235.91 571.464C236.005 587.849 237.139 604.212 239.303 620.454V620.49Z" fill="#FAA42F"/>
<path fill-rule="evenodd" clip-rule="evenodd" d="M349.033 740.91L391.966 716.403L460.124 755.87V819.139L398.789 855.213L349.033 826.631V740.91Z" fill="#F15933"/>
<path fill-rule="evenodd" clip-rule="evenodd" d="M460.124 1032.8L522.152 1068.16L584.181 1032.8V1018.51C540.554 1012.42 498.983 1000.82 460.124 983.113V1032.8ZM584.181 974.271V962.023L522.152 925.974L486.018 947.063C517.396 960.409 550.398 969.557 584.169 974.271H584.181Z" fill="#EE438D"/>
<path fill-rule="evenodd" clip-rule="evenodd" d="M349.032 740.91L391.966 716.403V637.493L336.773 606.199L275.438 641.568V698.719L349.032 740.91Z" fill="#F37132"/>
<path fill-rule="evenodd" clip-rule="evenodd" d="M641.405 1141.65L645.504 1139.61V1068.16L584.156 1032.8L522.14 1068.16V1072.93L641.405 1141.65Z" fill="#CC3192"/>
<path fill-rule="evenodd" clip-rule="evenodd" d="M486.006 947.063L522.14 925.974V855.213L460.112 819.139L398.765 855.213V896.711C425.502 917.255 454.831 934.185 485.994 947.063H486.006Z" fill="#BD2025"/>
<path fill-rule="evenodd" clip-rule="evenodd" d="M647.522 1140.97L645.504 1139.61L641.405 1141.65L644.129 1143L647.522 1140.97Z" fill="#9B3995"/>
<path fill-rule="evenodd" clip-rule="evenodd" d="M152.086 285.744L213.422 321.137L275.438 285.744V214.302L273.394 213.621L152.086 283.713V285.744Z" fill="#F1EB59"/>
<path fill-rule="evenodd" clip-rule="evenodd" d="M213.422 392.578L226.375 400.046C242.04 361.248 263.166 325.855 288.403 293.236L275.45 285.744L213.422 321.136V392.578ZM264.504 421.768L275.45 427.91L336.773 392.542V321.136L326.557 315.688C300.801 347.835 279.902 383.589 264.528 421.805L264.504 421.768Z" fill="#FCEA3B"/>
<path fill-rule="evenodd" clip-rule="evenodd" d="M275.438 499.389L336.773 534.757L391.966 502.782V426.597L394.021 425.223L336.773 392.567L275.438 427.947V499.389Z" fill="#FAA42F"/>
<path fill-rule="evenodd" clip-rule="evenodd" d="M522.14 925.974L584.156 962.023L645.504 925.974V860.662L644.129 861.331L577.345 823.238L522.14 855.213V925.974Z" fill="#E22574"/>
<path fill-rule="evenodd" clip-rule="evenodd" d="M336.773 606.199L391.966 637.493V502.782L336.773 534.757V606.199Z" fill="#F7975F"/>
<path fill-rule="evenodd" clip-rule="evenodd" d="M584.157 1032.8L645.492 1068.16L707.52 1032.8V1017.82C686.499 1020.54 665.325 1021.9 644.13 1021.9C624.097 1021.83 604.082 1020.69 584.169 1018.51L584.157 1032.8ZM707.508 973.59V962.023L645.48 925.974L584.145 962.023V974.271C604.012 977.027 624.048 978.393 644.105 978.357C665.329 978.458 686.526 976.864 707.496 973.59H707.508Z" fill="#CC3192"/>
<path fill-rule="evenodd" clip-rule="evenodd" d="M460.124 819.139L522.14 855.213L577.345 823.238L460.124 755.87V819.139Z" fill="#D31F26"/>
<path fill-rule="evenodd" clip-rule="evenodd" d="M645.504 1139.61L647.523 1140.97L768.831 1070.89V1068.16L707.52 1032.8L645.504 1068.16V1139.61Z" fill="#73206A"/>
<path fill-rule="evenodd" clip-rule="evenodd" d="M273.395 213.621L275.438 214.302L336.773 178.934V176.878L273.395 213.621Z" fill="#D6E042"/>
<path fill-rule="evenodd" clip-rule="evenodd" d="M275.438 285.744L288.391 293.236C299.957 278.945 312.241 266.029 324.501 253.1C342.145 235.365 361.3 219.201 381.75 204.791L336.749 178.946L275.426 214.314L275.438 285.744ZM326.52 315.688L336.737 321.137L398.765 285.744V246.301C383.378 257.481 369.011 270 355.832 283.713C345.615 293.905 336.08 304.097 326.532 315.688H326.52Z" fill="#FFCF29"/>
<path fill-rule="evenodd" clip-rule="evenodd" d="M336.773 392.566L394.021 425.222L460.124 387.13V321.136L398.789 285.744L336.773 321.136V392.566Z" fill="#FAA42F"/>
<path fill-rule="evenodd" clip-rule="evenodd" d="M832.902 1034.13L830.847 1032.8L768.831 1068.16V1070.89L832.902 1034.13Z" fill="#853A96"/>
<path fill-rule="evenodd" clip-rule="evenodd" d="M645.504 925.974L707.52 962.023L768.831 925.974V855.213L712.288 821.863L645.504 860.661V925.974Z" fill="#CC3192"/>
<path fill-rule="evenodd" clip-rule="evenodd" d="M707.508 1032.8L768.831 1068.16L830.859 1032.8V981.714C791.669 999.558 750.134 1011.72 707.508 1017.82V1032.8ZM803.591 946.382L768.831 925.974L707.508 962.023V973.59C740.906 968.141 773.598 959.299 803.591 946.382Z" fill="#9B3995"/>
<path fill-rule="evenodd" clip-rule="evenodd" d="M336.761 178.934L381.762 204.779C406.305 187.205 432.564 172.161 460.136 159.875V107.492L458.762 106.811L336.773 176.878L336.761 178.934Z" fill="#FFCF29"/>
<path fill-rule="evenodd" clip-rule="evenodd" d="M398.777 285.744L460.124 321.137L522.153 285.744V214.302L488.706 195.292C455.989 208.233 426.009 225.917 398.704 246.374L398.777 285.744Z" fill="#D98A26"/>
<path fill-rule="evenodd" clip-rule="evenodd" d="M830.847 1032.8L832.89 1034.15L954.198 964.079V962.023L909.197 936.178C884.596 953.853 858.35 969.118 830.823 981.763L830.847 1032.8Z" fill="#8F4F9F"/>
<path fill-rule="evenodd" clip-rule="evenodd" d="M579.389 318.388L522.14 285.744L460.124 321.136V387.13L579.389 318.388Z" fill="#F37132"/>
<path fill-rule="evenodd" clip-rule="evenodd" d="M712.288 821.863L768.831 855.213L830.847 819.139V753.827L712.288 821.863Z" fill="#D24B9B"/>
<path fill-rule="evenodd" clip-rule="evenodd" d="M768.831 925.974L803.591 946.382C835.335 932.965 865.132 915.342 892.182 893.986V855.213L830.847 819.139L768.818 855.213L768.831 925.974Z" fill="#B263A7"/>
<path fill-rule="evenodd" clip-rule="evenodd" d="M458.75 106.81L460.124 107.492L522.14 72.0867V70.0677L458.75 106.81Z" fill="#FFCF29"/>
<path fill-rule="evenodd" clip-rule="evenodd" d="M488.706 195.292L522.104 214.351L571.836 186.45V170.76L574.572 170.091C545.103 175.276 516.303 183.729 488.706 195.292ZM571.836 100.717L522.14 72.0989L460.112 107.492V159.875C495.838 144.184 533.375 132.99 571.86 126.55L571.836 100.717Z" fill="#FAA42F"/>
<path fill-rule="evenodd" clip-rule="evenodd" d="M909.222 936.178L954.223 962.023L1016.25 925.974V869.504L941.939 826.643L892.182 855.213V893.986C900.38 888.538 907.178 882.42 914.695 876.29L954.198 898.754C939.996 912.159 924.967 924.658 909.197 936.178H909.222Z" fill="#6B297A"/>
<path fill-rule="evenodd" clip-rule="evenodd" d="M1018.27 927.324L1016.23 925.974L954.21 962.023V964.067L1018.27 927.324Z" fill="#782A8F"/>
<path fill-rule="evenodd" clip-rule="evenodd" d="M522.14 285.744L579.389 318.388L644.129 281.669L645.504 282.338V228.581L571.884 186.401L522.14 214.302V285.744Z" fill="#F37132"/>
<path fill-rule="evenodd" clip-rule="evenodd" d="M830.847 819.139L892.194 855.213L941.939 826.631V740.91L895.612 714.384V716.403L830.847 753.827V819.139Z" fill="#9B3995"/>
<path fill-rule="evenodd" clip-rule="evenodd" d="M522.14 72.0867L571.884 100.668L645.504 57.808V1.35003L644.129 0L522.14 70.0677V72.0867Z" fill="#FAA42F"/>
<path fill-rule="evenodd" clip-rule="evenodd" d="M645.504 282.338V228.581L719.78 186.401L768.831 214.302V285.744L710.232 319.762L645.504 282.338Z" fill="#F15933"/>
<path fill-rule="evenodd" clip-rule="evenodd" d="M1016.23 925.974L1018.27 927.324L1139.58 857.256V855.213L1089.82 826.631L1016.23 869.504V925.974Z" fill="#782A8F"/>
<path fill-rule="evenodd" clip-rule="evenodd" d="M895.612 639.549L954.21 606.199V534.757L895.612 500.739V639.549Z" fill="#A01664"/>
<path fill-rule="evenodd" clip-rule="evenodd" d="M830.847 389.149V321.136L768.831 285.744L710.232 319.762L830.847 389.149Z" fill="#C02026"/>
<path fill-rule="evenodd" clip-rule="evenodd" d="M895.612 714.384L941.939 740.91L1016.23 698.719V641.568L954.21 606.199L895.612 639.549V714.384Z" fill="#9B3995"/>
<path fill-rule="evenodd" clip-rule="evenodd" d="M719.792 100.668L768.843 72.0989L830.871 107.492V161.237C812.338 152.794 793.202 145.741 773.623 140.135V185.745C783.16 188.527 792.505 191.932 801.596 195.937L768.88 214.302L719.792 186.401V100.668Z" fill="#F15933"/>
<path fill-rule="evenodd" clip-rule="evenodd" d="M1028.49 707.512C1038.25 680.003 1044.89 651.481 1048.26 622.485L1016.21 641.519V698.682L1029.18 706.174L1028.49 707.512ZM1089.82 740.862L1139.58 712.28V641.567L1093.18 615.041C1089.27 654.135 1080.34 692.561 1066.6 729.368L1067.31 727.994L1089.82 740.862Z" fill="#9051A0"/>
<path fill-rule="evenodd" clip-rule="evenodd" d="M894.919 426.597L954.211 392.566V321.136L892.194 285.744L830.847 321.136V389.149L894.919 426.597Z" fill="#B01B4A"/>
<path fill-rule="evenodd" clip-rule="evenodd" d="M719.78 100.668L768.831 72.0865L645.504 1.34985V57.8078L719.78 100.668Z" fill="#C54627"/>
<path fill-rule="evenodd" clip-rule="evenodd" d="M895.612 500.739L954.21 534.757L1016.23 499.389V427.947L954.21 392.567L894.918 426.597H895.612V500.739Z" fill="#A41768"/>
<path fill-rule="evenodd" clip-rule="evenodd" d="M768.831 285.744L830.859 321.136L892.194 285.744V249.001C864.609 227.168 834.101 209.306 801.56 195.937L768.843 214.302L768.831 285.744Z" fill="#EF3839"/>
<path fill-rule="evenodd" clip-rule="evenodd" d="M954.198 606.199L1016.23 641.568L1048.27 622.534C1050.46 605.592 1051.59 588.532 1051.67 571.451C1051.56 553.482 1050.43 535.533 1048.27 517.693L1016.21 499.353L954.186 534.721L954.198 606.199Z" fill="#9B3995"/>
<path fill-rule="evenodd" clip-rule="evenodd" d="M1093.18 615.041L1139.54 641.568V499.353L1092.51 525.879C1094.46 540.994 1095.37 556.224 1095.23 571.464C1095.23 586.423 1094.55 600.714 1093.18 615.005V615.041Z" fill="#6B297A"/>
<path fill-rule="evenodd" clip-rule="evenodd" d="M892.182 285.744L954.21 321.136L961.703 317.038C952.675 305.301 942.888 294.169 932.403 283.713C919.646 271.414 906.223 259.826 892.194 249.001L892.182 285.744ZM999.856 294.61L1016.21 285.744V214.302L954.186 178.933L907.86 206.129C927.492 220.265 945.946 235.969 963.04 253.088C976.009 266.287 988.289 280.147 999.832 294.61H999.856Z" fill="#E22574"/>
<path fill-rule="evenodd" clip-rule="evenodd" d="M954.198 392.578L1016.23 427.947L1023.72 423.848C1008.89 385.157 987.945 349.095 961.69 317.038L954.198 321.136V392.578ZM1061.87 401.421L1077.56 392.578V321.136L1016.21 285.744L999.856 294.61C1025.21 327.285 1046.07 363.208 1061.88 401.421H1061.87Z" fill="#CC3192"/>
<path fill-rule="evenodd" clip-rule="evenodd" d="M907.872 206.129L954.198 178.934L830.847 107.491V161.237C857.982 173.543 883.79 188.585 907.872 206.129Z" fill="#EF3839"/>
<path fill-rule="evenodd" clip-rule="evenodd" d="M1016.21 499.353L1048.26 517.706C1043.71 485.568 1035.47 454.063 1023.71 423.812L1016.21 427.91V499.353ZM1092.55 525.879L1139.58 499.353V427.947L1077.55 392.579L1061.86 401.421C1077.55 440.888 1088.43 482.374 1092.53 525.915L1092.55 525.879Z" fill="#B263A7"/>
<path fill-rule="evenodd" clip-rule="evenodd" d="M1016.23 285.744L1077.56 321.136L1139.58 285.744L1016.23 214.302V285.744Z" fill="#D1499A"/>
<path fill-rule="evenodd" clip-rule="evenodd" d="M1077.56 392.566L1139.58 427.947V285.744L1077.56 321.136V392.566Z" fill="#9B3995"/>
<path fill-rule="evenodd" clip-rule="evenodd" d="M1089.82 826.631L1139.58 855.213V713.01V712.329L1089.82 740.91V826.631Z" fill="#85459A"/>
<path fill-rule="evenodd" clip-rule="evenodd" d="M516.01 638.174L522.14 641.568V648.391L516.01 644.961V638.174Z" fill="#F15933"/>
<path fill-rule="evenodd" clip-rule="evenodd" d="M516.01 502.782L522.14 499.389L584.156 534.757V606.199L522.14 641.568L516.01 638.174V502.782Z" fill="#F15933"/>
<path fill-rule="evenodd" clip-rule="evenodd" d="M650.272 715.053L645.504 712.329L639.362 716.403L644.13 719.127L650.272 715.053Z" fill="#E22574"/>
<path fill-rule="evenodd" clip-rule="evenodd" d="M639.362 716.403L645.504 712.329V641.568L584.156 606.199L522.14 641.568V648.391L639.362 716.403Z" fill="#EF3839"/>
<path fill-rule="evenodd" clip-rule="evenodd" d="M645.504 712.329L650.272 715.053L768.831 646.335V641.568L707.52 606.199L645.504 641.568V712.329Z" fill="#EE3F8A"/>
<path fill-rule="evenodd" clip-rule="evenodd" d="M584.157 606.199L645.504 641.568L707.52 606.199V534.757L645.504 499.389L584.157 534.757V606.199Z" fill="#EF3839"/>
<path fill-rule="evenodd" clip-rule="evenodd" d="M707.52 606.199L768.831 641.568L771.58 640.218V500.739L768.831 499.389L707.52 534.757V606.199Z" fill="#E22574"/>
<path fill-rule="evenodd" clip-rule="evenodd" d="M771.579 640.218L768.831 641.568V646.335L771.579 644.961V640.218Z" fill="#CC3192"/>
<path fill-rule="evenodd" clip-rule="evenodd" d="M516.01 502.782L522.14 499.389V494.609L516.01 498.015V502.782Z" fill="#F37132"/>
<path fill-rule="evenodd" clip-rule="evenodd" d="M522.14 499.389V494.609L641.405 425.892L645.504 427.947V499.389L584.156 534.757L522.14 499.389Z" fill="#F15933"/>
<path fill-rule="evenodd" clip-rule="evenodd" d="M648.228 426.597L645.504 427.947L641.405 425.892L644.129 424.542L648.228 426.597Z" fill="#F4805F"/>
<path fill-rule="evenodd" clip-rule="evenodd" d="M645.504 499.389L707.52 534.757L768.831 499.389V496.665L648.228 426.597L645.504 427.947V499.389Z" fill="#EF3839"/>
<path fill-rule="evenodd" clip-rule="evenodd" d="M768.831 499.389L771.579 500.739V498.015L768.831 496.665V499.389Z" fill="#E22574"/>
<path fill-rule="evenodd" clip-rule="evenodd" d="M603.239 168.036L645.504 192.543L687.732 168.036V119.058L645.504 94.5751L603.239 119.058V168.036Z" fill="#F37132"/>
<path fill-rule="evenodd" clip-rule="evenodd" d="M973.281 811.902L1016.23 836.41L1058.48 811.902V762.912L1016.23 738.441L973.281 762.912V811.902Z" fill="#552263"/>
<path fill-rule="evenodd" clip-rule="evenodd" d="M233.186 808.254L275.438 832.761L317.69 808.254V759.263L275.438 734.793L233.186 759.263V808.254Z" fill="#F37132"/>
<path d="M121.472 1478V1305.9H158.351L233.829 1418.99V1305.9H270.708V1478H233.829L158.351 1365.4V1478H121.472ZM303.705 1478V1305.9H370.578C384.674 1305.9 396.311 1308.28 405.49 1313.03C414.833 1317.78 421.799 1324.34 426.388 1332.7C430.977 1340.89 433.272 1350.15 433.272 1360.48C433.272 1370.15 431.059 1379.08 426.634 1387.28C422.208 1395.47 415.406 1402.11 406.228 1407.19C397.049 1412.27 385.166 1414.81 370.578 1414.81H340.584V1478H303.705ZM340.584 1385.31H368.12C377.79 1385.31 384.756 1383.1 389.018 1378.67C393.443 1374.08 395.656 1368.02 395.656 1360.48C395.656 1352.78 393.443 1346.79 389.018 1342.53C384.756 1338.11 377.79 1335.89 368.12 1335.89H340.584V1385.31ZM457.126 1478V1305.9H501.38L551.535 1409.41L601.198 1305.9H645.207V1478H608.328V1368.1L566.041 1453.91H536.538L494.005 1368.1V1478H457.126ZM677.762 1532.09V1354.09H710.461L714.641 1370.31C717.263 1366.87 720.295 1363.68 723.737 1360.73C727.179 1357.78 731.277 1355.48 736.03 1353.84C740.947 1352.04 746.684 1351.14 753.24 1351.14C764.714 1351.14 774.794 1354.01 783.481 1359.74C792.332 1365.48 799.38 1373.26 804.625 1383.1C809.87 1392.77 812.492 1403.83 812.492 1416.29C812.492 1428.75 809.788 1439.89 804.379 1449.73C799.134 1459.4 792.086 1467.02 783.235 1472.59C774.384 1478.16 764.468 1480.95 753.486 1480.95C744.635 1480.95 737.014 1479.39 730.621 1476.28C724.229 1473.16 718.902 1468.82 714.641 1463.25V1532.09H677.762ZM744.144 1448.74C750.044 1448.74 755.289 1447.43 759.878 1444.81C764.632 1442.02 768.32 1438.17 770.942 1433.25C773.565 1428.34 774.876 1422.68 774.876 1416.29C774.876 1409.9 773.565 1404.24 770.942 1399.33C768.32 1394.41 764.632 1390.56 759.878 1387.77C755.289 1384.82 750.044 1383.34 744.144 1383.34C738.079 1383.34 732.67 1384.82 727.917 1387.77C723.328 1390.56 719.722 1394.41 717.099 1399.33C714.477 1404.24 713.166 1409.82 713.166 1416.04C713.166 1422.44 714.477 1428.09 717.099 1433.01C719.722 1437.93 723.328 1441.78 727.917 1444.56C732.67 1447.35 738.079 1448.74 744.144 1448.74ZM840.787 1478V1300.98H877.666V1478H840.787ZM956.407 1480.95C946.081 1480.95 937.312 1478.82 930.1 1474.56C923.052 1470.3 917.644 1464.07 913.874 1455.87C910.268 1447.51 908.465 1437.35 908.465 1425.39V1354.09H945.344V1421.7C945.344 1430.88 947.228 1437.93 950.998 1442.84C954.768 1447.6 960.833 1449.97 969.192 1449.97C974.273 1449.97 978.78 1448.82 982.714 1446.53C986.812 1444.24 989.926 1440.88 992.057 1436.45C994.351 1432.02 995.499 1426.62 995.499 1420.22V1354.09H1032.38V1478H1000.17L997.22 1458.33C993.614 1465.05 988.369 1470.54 981.485 1474.8C974.601 1478.9 966.241 1480.95 956.407 1480.95ZM1115.95 1480.95C1104.31 1480.95 1094.23 1479.15 1085.71 1475.54C1077.35 1471.77 1070.71 1466.69 1065.79 1460.3C1061.04 1453.91 1058.33 1446.69 1057.68 1438.66H1094.31C1094.97 1441.45 1096.11 1443.99 1097.75 1446.28C1099.56 1448.42 1101.93 1450.14 1104.88 1451.45C1108 1452.59 1111.44 1453.17 1115.21 1453.17C1119.31 1453.17 1122.58 1452.68 1125.04 1451.69C1127.66 1450.55 1129.63 1449.07 1130.94 1447.27C1132.25 1445.46 1132.91 1443.58 1132.91 1441.61C1132.91 1438.5 1131.93 1436.12 1129.96 1434.48C1128.16 1432.84 1125.45 1431.53 1121.85 1430.55C1118.24 1429.4 1113.9 1428.34 1108.82 1427.35C1102.92 1426.04 1097.01 1424.57 1091.11 1422.93C1085.38 1421.12 1080.21 1418.91 1075.63 1416.29C1071.2 1413.67 1067.59 1410.31 1064.81 1406.21C1062.18 1401.95 1060.87 1396.78 1060.87 1390.72C1060.87 1383.34 1062.92 1376.71 1067.02 1370.81C1071.12 1364.74 1077.02 1359.99 1084.72 1356.55C1092.43 1352.94 1101.77 1351.14 1112.75 1351.14C1128.32 1351.14 1140.53 1354.58 1149.38 1361.46C1158.23 1368.35 1163.48 1377.61 1165.12 1389.25H1130.7C1129.71 1385.97 1127.66 1383.51 1124.55 1381.87C1121.44 1380.07 1117.5 1379.17 1112.75 1379.17C1107.34 1379.17 1103.24 1380.07 1100.46 1381.87C1097.67 1383.67 1096.28 1386.05 1096.28 1389C1096.28 1390.97 1097.18 1392.77 1098.98 1394.41C1100.95 1395.88 1103.73 1397.19 1107.34 1398.34C1110.95 1399.49 1115.37 1400.64 1120.62 1401.78C1130.62 1403.91 1139.22 1406.21 1146.43 1408.67C1153.81 1411.13 1159.54 1414.73 1163.64 1419.49C1167.74 1424.08 1169.71 1430.8 1169.54 1439.65C1169.71 1447.68 1167.58 1454.81 1163.15 1461.04C1158.89 1467.26 1152.74 1472.18 1144.71 1475.79C1136.68 1479.23 1127.09 1480.95 1115.95 1480.95Z" fill="#535353"/>
</svg>
