<svg width="4444" height="1534" viewBox="0 0 4444 1534" fill="none" xmlns="http://www.w3.org/2000/svg">
<path fill-rule="evenodd" clip-rule="evenodd" d="M5.48094 1152.66V1147.2L0 1144.46V1149.94L5.48094 1152.66Z" fill="#FAA42F"/>
<path fill-rule="evenodd" clip-rule="evenodd" d="M0 959.214L5.48094 955.56V860.655L0 857.948V959.214Z" fill="#DDB02A"/>
<path fill-rule="evenodd" clip-rule="evenodd" d="M0 1144.46L5.48094 1147.2L71.2849 1108.86V993.894L5.48094 955.56L0 959.214V1144.46Z" fill="#C47728"/>
<path fill-rule="evenodd" clip-rule="evenodd" d="M165.44 1245.72L170.921 1242.1L253.184 1290.45V1295.95L165.44 1245.72Z" fill="#F15933"/>
<path fill-rule="evenodd" clip-rule="evenodd" d="M165.44 1245.72L170.921 1242.1V1166.36L71.2849 1108.86L5.48093 1147.2V1152.66L165.44 1245.72Z" fill="#F37132"/>
<path fill-rule="evenodd" clip-rule="evenodd" d="M0 672.705L5.48094 669.964V574.146L0 571.389V672.705Z" fill="#D6E042"/>
<path fill-rule="evenodd" clip-rule="evenodd" d="M0 857.948L5.46463 860.655L63.0471 827.819C60.4515 807.545 59.2362 787.118 59.4095 766.68C59.4095 745.67 61.2365 723.762 63.0471 702.801L5.46463 669.915L0 672.656V857.948Z" fill="#FCEA3B"/>
<path fill-rule="evenodd" clip-rule="evenodd" d="M5.46466 956.474L71.2849 993.894L170.921 937.307V860.639L122.457 832.386C123.386 846.088 126.127 859.758 128.867 873.444L75.8524 904.438C69.3719 879.301 65.0874 853.648 63.0472 827.77L5.46466 860.607V956.474Z" fill="#FAA42F"/>
<path fill-rule="evenodd" clip-rule="evenodd" d="M170.921 1242.1V1166.36L197.412 1150.85L196.515 1149.95C209.303 1165.45 223.006 1180.03 236.725 1193.74C259.7 1216.64 284.453 1237.69 310.75 1256.69L253.167 1290.45L170.921 1242.1ZM269.626 1108.88L336.344 1147.2V1202.86C315.722 1187.84 296.455 1171.04 278.761 1152.66C268.008 1142.7 257.932 1132.04 248.6 1120.74L269.626 1108.88Z" fill="#F15933"/>
<path fill-rule="evenodd" clip-rule="evenodd" d="M501.8 1439.2V1432.81L418.623 1385.37L414.056 1388.11L501.8 1439.2Z" fill="#E22574"/>
<path fill-rule="evenodd" clip-rule="evenodd" d="M414.056 1388.11L418.623 1385.37V1318.74C380.539 1302.02 344.371 1281.24 310.75 1256.75L253.167 1290.52V1296.02L414.056 1388.11Z" fill="#EF3839"/>
<path fill-rule="evenodd" clip-rule="evenodd" d="M0 386.162L5.48094 383.422V380.698L0 383.422V386.162Z" fill="#BBD64B"/>
<path fill-rule="evenodd" clip-rule="evenodd" d="M0 571.389L5.48094 574.145L87.744 526.693V430.891L5.48094 383.422L0 386.162V571.389Z" fill="#D6E042"/>
<path fill-rule="evenodd" clip-rule="evenodd" d="M5.46466 669.915L63.0472 702.752C69.373 645.739 83.5295 589.871 105.117 536.725L87.744 526.709L5.46466 574.146V669.915ZM122.457 697.287L170.921 669.915V574.146L156.24 565.908C139.429 608.104 128.061 652.268 122.408 697.336L122.457 697.287Z" fill="#FFCF29"/>
<path fill-rule="evenodd" clip-rule="evenodd" d="M122.457 832.386L170.921 860.655L253.167 813.219V717.4L170.921 669.915L122.457 697.287C119.554 720.29 118.034 743.446 117.906 766.631C118.034 788.607 119.554 810.553 122.457 832.337V832.386Z" fill="#FAA42F"/>
<path fill-rule="evenodd" clip-rule="evenodd" d="M269.626 993.894L327.209 961.025L418.623 1013.96V1098.82L336.36 1147.2L269.626 1108.86V993.894Z" fill="#F15933"/>
<path fill-rule="evenodd" clip-rule="evenodd" d="M418.623 1385.37L501.816 1432.81L585.009 1385.37V1366.21C526.497 1358.05 470.741 1342.49 418.623 1318.74V1385.37ZM585.009 1306.88V1290.45L501.816 1242.1L453.352 1270.39C495.437 1288.29 539.699 1300.56 584.993 1306.88H585.009Z" fill="#EE438D"/>
<path fill-rule="evenodd" clip-rule="evenodd" d="M269.626 993.894L327.209 961.025V855.191L253.184 813.219L170.921 860.655V937.307L269.626 993.894Z" fill="#F37132"/>
<path fill-rule="evenodd" clip-rule="evenodd" d="M661.759 1531.37L667.256 1528.63V1432.81L584.976 1385.37L501.8 1432.81V1439.2L661.759 1531.37Z" fill="#CC3192"/>
<path fill-rule="evenodd" clip-rule="evenodd" d="M453.336 1270.39L501.8 1242.1V1147.2L418.607 1098.82L336.328 1147.2V1202.86C372.188 1230.41 411.524 1253.12 453.32 1270.39H453.336Z" fill="#BD2025"/>
<path fill-rule="evenodd" clip-rule="evenodd" d="M669.964 1530.46L667.256 1528.63L661.759 1531.37L665.413 1533.18L669.964 1530.46Z" fill="#9B3995"/>
<path fill-rule="evenodd" clip-rule="evenodd" d="M5.48093 383.422L87.744 430.891L170.921 383.422V287.603L168.18 286.69L5.48093 380.698V383.422Z" fill="#F1EB59"/>
<path fill-rule="evenodd" clip-rule="evenodd" d="M87.744 526.709L105.117 536.725C126.127 484.689 154.461 437.22 188.31 393.47L170.937 383.422L87.744 430.891V526.709ZM156.256 565.859L170.937 574.096L253.184 526.66V430.891L239.481 423.583C204.937 466.699 176.908 514.652 156.288 565.908L156.256 565.859Z" fill="#FCEA3B"/>
<path fill-rule="evenodd" clip-rule="evenodd" d="M170.921 669.964L253.184 717.4L327.209 674.515V572.335L329.966 570.492L253.184 526.693L170.921 574.146V669.964Z" fill="#FAA42F"/>
<path fill-rule="evenodd" clip-rule="evenodd" d="M501.8 1242.1L584.976 1290.45L667.256 1242.1V1154.51L665.413 1155.4L575.842 1104.31L501.8 1147.2V1242.1Z" fill="#E22574"/>
<path fill-rule="evenodd" clip-rule="evenodd" d="M253.184 813.219L327.209 855.191V674.515L253.184 717.4V813.219Z" fill="#F7975F"/>
<path fill-rule="evenodd" clip-rule="evenodd" d="M584.976 1385.37L667.24 1432.81L750.432 1385.37V1365.29C722.239 1368.93 693.84 1370.76 665.413 1370.76C638.544 1370.66 611.7 1369.14 584.993 1366.21L584.976 1385.37ZM750.416 1305.97V1290.45L667.223 1242.1L584.96 1290.45V1306.88C611.606 1310.58 638.478 1312.41 665.38 1312.36C693.845 1312.5 722.275 1310.36 750.4 1305.97H750.416Z" fill="#CC3192"/>
<path fill-rule="evenodd" clip-rule="evenodd" d="M418.623 1098.82L501.8 1147.2L575.842 1104.31L418.623 1013.96V1098.82Z" fill="#D31F26"/>
<path fill-rule="evenodd" clip-rule="evenodd" d="M667.256 1528.63L669.964 1530.46L832.663 1436.46V1432.81L750.432 1385.37L667.256 1432.81V1528.63Z" fill="#73206A"/>
<path fill-rule="evenodd" clip-rule="evenodd" d="M168.18 286.69L170.921 287.603L253.184 240.167V237.41L168.18 286.69Z" fill="#D6E042"/>
<path fill-rule="evenodd" clip-rule="evenodd" d="M170.921 383.422L188.293 393.47C203.806 374.303 220.282 356.979 236.725 339.639C260.389 315.853 286.08 294.174 313.507 274.847L253.151 240.183L170.904 287.619L170.921 383.422ZM239.432 423.583L253.135 430.891L336.328 383.422V330.521C315.691 345.515 296.422 362.306 278.745 380.698C265.043 394.367 252.254 408.037 239.449 423.583H239.432Z" fill="#FFCF29"/>
<path fill-rule="evenodd" clip-rule="evenodd" d="M253.184 526.693L329.966 570.491L418.623 519.401V430.891L336.36 383.422L253.184 430.891V526.693Z" fill="#FAA42F"/>
<path fill-rule="evenodd" clip-rule="evenodd" d="M918.596 1387.17L915.839 1385.37L832.663 1432.81V1436.46L918.596 1387.17Z" fill="#853A96"/>
<path fill-rule="evenodd" clip-rule="evenodd" d="M667.256 1242.1L750.432 1290.45L832.663 1242.1V1147.2L756.827 1102.47L667.256 1154.51V1242.1Z" fill="#CC3192"/>
<path fill-rule="evenodd" clip-rule="evenodd" d="M750.416 1385.37L832.663 1432.81L915.856 1385.37V1316.86C863.294 1340.8 807.586 1357.1 750.416 1365.29V1385.37ZM879.283 1269.47L832.663 1242.1L750.416 1290.45V1305.97C795.21 1298.66 839.057 1286.8 879.283 1269.47Z" fill="#9B3995"/>
<path fill-rule="evenodd" clip-rule="evenodd" d="M253.167 240.167L313.523 274.831C346.44 251.261 381.659 231.083 418.64 214.606V144.348L416.796 143.435L253.184 237.41L253.167 240.167Z" fill="#FFCF29"/>
<path fill-rule="evenodd" clip-rule="evenodd" d="M336.344 383.422L418.623 430.891L501.816 383.422V287.603L456.957 262.107C413.077 279.463 372.867 303.181 336.246 330.619L336.344 383.422Z" fill="#D98A26"/>
<path fill-rule="evenodd" clip-rule="evenodd" d="M915.839 1385.37L918.58 1387.18L1081.28 1293.21V1290.45L1020.92 1255.79C987.927 1279.49 952.726 1299.97 915.807 1316.93L915.839 1385.37Z" fill="#8F4F9F"/>
<path fill-rule="evenodd" clip-rule="evenodd" d="M578.582 427.204L501.8 383.422L418.623 430.891V519.401L578.582 427.204Z" fill="#F37132"/>
<path fill-rule="evenodd" clip-rule="evenodd" d="M756.827 1102.47L832.663 1147.2L915.839 1098.82V1011.22L756.827 1102.47Z" fill="#D24B9B"/>
<path fill-rule="evenodd" clip-rule="evenodd" d="M832.663 1242.1L879.283 1269.47C921.859 1251.48 961.823 1227.84 998.102 1199.2V1147.2L915.839 1098.82L832.646 1147.2L832.663 1242.1Z" fill="#B263A7"/>
<path fill-rule="evenodd" clip-rule="evenodd" d="M416.78 143.435L418.623 144.348L501.8 96.8631V94.1553L416.78 143.435Z" fill="#FFCF29"/>
<path fill-rule="evenodd" clip-rule="evenodd" d="M456.957 262.107L501.751 287.668L568.452 250.248V229.205L572.122 228.308C532.598 235.262 493.971 246.598 456.957 262.107ZM568.452 135.262L501.8 96.8794L418.607 144.348V214.605C466.524 193.561 516.868 178.547 568.485 169.91L568.452 135.262Z" fill="#FAA42F"/>
<path fill-rule="evenodd" clip-rule="evenodd" d="M1020.96 1255.79L1081.31 1290.45L1164.5 1242.1V1166.36L1064.84 1108.88L998.102 1147.2V1199.2C1009.1 1191.89 1018.22 1183.69 1028.3 1175.47L1081.28 1205.6C1062.23 1223.57 1042.07 1240.34 1020.92 1255.79H1020.96Z" fill="#6B297A"/>
<path fill-rule="evenodd" clip-rule="evenodd" d="M1167.21 1243.91L1164.47 1242.1L1081.3 1290.45V1293.19L1167.21 1243.91Z" fill="#782A8F"/>
<path fill-rule="evenodd" clip-rule="evenodd" d="M501.8 383.422L578.582 427.204L665.413 377.957L667.256 378.854V306.754L568.517 250.183L501.8 287.603V383.422Z" fill="#F37132"/>
<path fill-rule="evenodd" clip-rule="evenodd" d="M915.839 1098.82L998.119 1147.2L1064.84 1108.86V993.894L1002.7 958.317V961.025L915.839 1011.22V1098.82Z" fill="#9B3995"/>
<path fill-rule="evenodd" clip-rule="evenodd" d="M501.8 96.8631L568.517 135.197L667.256 77.7124V1.9906L665.413 0.179932L501.8 94.1553V96.8631Z" fill="#FAA42F"/>
<path fill-rule="evenodd" clip-rule="evenodd" d="M667.256 378.854V306.754L766.875 250.183L832.663 287.603V383.422L754.07 429.047L667.256 378.854Z" fill="#F15933"/>
<path fill-rule="evenodd" clip-rule="evenodd" d="M1164.47 1242.1L1167.21 1243.91L1329.91 1149.94V1147.2L1263.18 1108.86L1164.47 1166.36V1242.1Z" fill="#782A8F"/>
<path fill-rule="evenodd" clip-rule="evenodd" d="M1002.7 857.947L1081.3 813.219V717.4L1002.7 671.775V857.947Z" fill="#A01664"/>
<path fill-rule="evenodd" clip-rule="evenodd" d="M915.839 522.109V430.891L832.663 383.422L754.07 429.047L915.839 522.109Z" fill="#C02026"/>
<path fill-rule="evenodd" clip-rule="evenodd" d="M1002.7 958.317L1064.84 993.894L1164.47 937.307V860.655L1081.3 813.219L1002.7 857.947V958.317Z" fill="#9B3995"/>
<path fill-rule="evenodd" clip-rule="evenodd" d="M766.892 135.197L832.679 96.8794L915.872 144.348V216.432C891.015 205.109 865.35 195.648 839.09 188.131V249.302C851.881 253.034 864.414 257.6 876.608 262.972L832.728 287.603L766.892 250.183V135.197Z" fill="#F15933"/>
<path fill-rule="evenodd" clip-rule="evenodd" d="M1180.91 949.101C1194.02 912.206 1202.91 873.951 1207.44 835.061L1164.46 860.59V937.258L1181.84 947.306L1180.91 949.101ZM1263.18 993.829L1329.91 955.495V860.655L1267.68 825.078C1262.44 877.51 1250.46 929.047 1232.04 978.414L1232.98 976.57L1263.18 993.829Z" fill="#9051A0"/>
<path fill-rule="evenodd" clip-rule="evenodd" d="M1001.77 572.335L1081.3 526.693V430.891L998.119 383.422L915.839 430.891V522.109L1001.77 572.335Z" fill="#B01B4A"/>
<path fill-rule="evenodd" clip-rule="evenodd" d="M766.875 135.197L832.663 96.863L667.256 1.99048V77.7123L766.875 135.197Z" fill="#C54627"/>
<path fill-rule="evenodd" clip-rule="evenodd" d="M1002.7 671.775L1081.3 717.4L1164.47 669.964V574.146L1081.3 526.693L1001.77 572.335H1002.7V671.775Z" fill="#A41768"/>
<path fill-rule="evenodd" clip-rule="evenodd" d="M832.663 383.422L915.856 430.891L998.119 383.422V334.142C961.121 304.859 920.204 280.902 876.559 262.971L832.679 287.603L832.663 383.422Z" fill="#EF3839"/>
<path fill-rule="evenodd" clip-rule="evenodd" d="M1081.28 813.219L1164.47 860.655L1207.45 835.127C1210.38 812.405 1211.9 789.524 1212.01 766.615C1211.87 742.514 1210.35 718.441 1207.45 694.514L1164.46 669.915L1081.26 717.352L1081.28 813.219Z" fill="#9B3995"/>
<path fill-rule="evenodd" clip-rule="evenodd" d="M1267.68 825.078L1329.86 860.655V669.915L1266.78 705.492C1269.39 725.765 1270.61 746.192 1270.44 766.631C1270.44 786.695 1269.52 805.862 1267.68 825.029V825.078Z" fill="#6B297A"/>
<path fill-rule="evenodd" clip-rule="evenodd" d="M998.102 383.422L1081.3 430.891L1091.34 425.393C1079.24 409.652 1066.11 394.721 1052.05 380.698C1034.94 364.203 1016.93 348.661 998.119 334.142L998.102 383.422ZM1142.52 395.313L1164.46 383.422V287.603L1081.26 240.167L1019.13 276.641C1045.46 295.601 1070.21 316.664 1093.14 339.623C1110.53 357.327 1127 375.915 1142.48 395.313H1142.52Z" fill="#E22574"/>
<path fill-rule="evenodd" clip-rule="evenodd" d="M1081.28 526.709L1164.47 574.145L1174.52 568.648C1154.63 516.755 1126.54 468.389 1091.33 425.393L1081.28 430.891V526.709ZM1225.69 538.568L1246.73 526.709V430.891L1164.46 383.422L1142.52 395.313C1176.52 439.137 1204.5 487.317 1225.71 538.568H1225.69Z" fill="#CC3192"/>
<path fill-rule="evenodd" clip-rule="evenodd" d="M1019.15 276.641L1081.28 240.167L915.839 144.348V216.432C952.232 232.937 986.847 253.111 1019.15 276.641Z" fill="#EF3839"/>
<path fill-rule="evenodd" clip-rule="evenodd" d="M1164.46 669.915L1207.44 694.53C1201.33 651.428 1190.28 609.172 1174.5 568.599L1164.46 574.097V669.915ZM1266.83 705.492L1329.91 669.915V574.146L1246.72 526.709L1225.68 538.568C1246.72 591.502 1261.32 647.143 1266.82 705.541L1266.83 705.492Z" fill="#B263A7"/>
<path fill-rule="evenodd" clip-rule="evenodd" d="M1164.47 383.422L1246.73 430.891L1329.91 383.422L1164.47 287.603V383.422Z" fill="#D1499A"/>
<path fill-rule="evenodd" clip-rule="evenodd" d="M1246.73 526.693L1329.91 574.145V383.422L1246.73 430.891V526.693Z" fill="#9B3995"/>
<path fill-rule="evenodd" clip-rule="evenodd" d="M1263.18 1108.86L1329.91 1147.2V956.474V955.56L1263.18 993.894V1108.86Z" fill="#85459A"/>
<path fill-rule="evenodd" clip-rule="evenodd" d="M493.578 856.104L501.8 860.655V869.806L493.578 865.206V856.104Z" fill="#F15933"/>
<path fill-rule="evenodd" clip-rule="evenodd" d="M493.578 674.515L501.8 669.964L584.976 717.4V813.219L501.8 860.655L493.578 856.104V674.515Z" fill="#F15933"/>
<path fill-rule="evenodd" clip-rule="evenodd" d="M673.65 959.214L667.256 955.56L659.018 961.025L665.412 964.679L673.65 959.214Z" fill="#E22574"/>
<path fill-rule="evenodd" clip-rule="evenodd" d="M659.018 961.025L667.256 955.56V860.655L584.976 813.219L501.8 860.655V869.806L659.018 961.025Z" fill="#EF3839"/>
<path fill-rule="evenodd" clip-rule="evenodd" d="M667.256 955.56L673.65 959.214L832.663 867.05V860.655L750.432 813.219L667.256 860.655V955.56Z" fill="#EE3F8A"/>
<path fill-rule="evenodd" clip-rule="evenodd" d="M584.976 813.219L667.256 860.655L750.432 813.219V717.4L667.256 669.964L584.976 717.4V813.219Z" fill="#EF3839"/>
<path fill-rule="evenodd" clip-rule="evenodd" d="M750.432 813.219L832.663 860.655L836.349 858.845V671.775L832.663 669.964L750.432 717.4V813.219Z" fill="#E22574"/>
<path fill-rule="evenodd" clip-rule="evenodd" d="M836.349 858.845L832.663 860.655V867.05L836.349 865.206V858.845Z" fill="#CC3192"/>
<path fill-rule="evenodd" clip-rule="evenodd" d="M493.578 674.515L501.8 669.964V663.553L493.578 668.121V674.515Z" fill="#F37132"/>
<path fill-rule="evenodd" clip-rule="evenodd" d="M501.8 669.964V663.553L661.759 571.389L667.256 574.146V669.964L584.976 717.4L501.8 669.964Z" fill="#F15933"/>
<path fill-rule="evenodd" clip-rule="evenodd" d="M670.91 572.335L667.256 574.146L661.759 571.389L665.413 569.578L670.91 572.335Z" fill="#F4805F"/>
<path fill-rule="evenodd" clip-rule="evenodd" d="M667.256 669.964L750.432 717.4L832.663 669.964V666.31L670.91 572.335L667.256 574.145V669.964Z" fill="#EF3839"/>
<path fill-rule="evenodd" clip-rule="evenodd" d="M832.663 669.964L836.349 671.775V668.121L832.663 666.31V669.964Z" fill="#E22574"/>
<path fill-rule="evenodd" clip-rule="evenodd" d="M610.57 225.551L667.256 258.42L723.892 225.551V159.861L667.256 127.025L610.57 159.861V225.551Z" fill="#F37132"/>
<path fill-rule="evenodd" clip-rule="evenodd" d="M1106.87 1089.11L1164.47 1121.98L1221.14 1089.11V1023.4L1164.47 990.583L1106.87 1023.4V1089.11Z" fill="#552263"/>
<path fill-rule="evenodd" clip-rule="evenodd" d="M114.252 1084.22L170.921 1117.08L227.59 1084.22V1018.51L170.921 985.689L114.252 1018.51V1084.22Z" fill="#F37132"/>
<path d="M1572.64 1018.65V552.309H1672.57L1877.09 858.762V552.309H1977.02V1018.65H1877.09L1672.57 713.53V1018.65H1572.64ZM2066.43 1018.65V552.309H2247.64C2285.83 552.309 2317.37 558.749 2342.24 571.629C2367.56 584.509 2386.43 602.274 2398.87 624.925C2411.3 647.132 2417.52 672.225 2417.52 700.206C2417.52 726.41 2411.53 750.615 2399.53 772.822C2387.54 795.029 2369.11 813.016 2344.24 826.784C2319.37 840.552 2287.17 847.437 2247.64 847.437H2166.36V1018.65H2066.43ZM2166.36 767.492H2240.98C2267.18 767.492 2286.06 761.496 2297.6 749.505C2309.6 737.069 2315.59 720.636 2315.59 700.206C2315.59 679.331 2309.6 663.121 2297.6 651.573C2286.06 639.581 2267.18 633.586 2240.98 633.586H2166.36V767.492ZM2482.16 1018.65V552.309H2602.07L2737.98 832.78L2872.55 552.309H2991.8V1018.65H2891.87V720.858L2777.29 953.363H2697.34L2582.09 720.858V1018.65H2482.16ZM3080.02 1165.22V682.885H3168.62L3179.95 726.854C3187.05 717.527 3195.27 708.866 3204.6 700.872C3213.92 692.878 3225.03 686.66 3237.91 682.218C3251.23 677.333 3266.78 674.89 3284.54 674.89C3315.63 674.89 3342.95 682.662 3366.48 698.207C3390.47 713.752 3409.57 734.848 3423.78 761.496C3437.99 787.7 3445.1 817.68 3445.1 851.434C3445.1 885.188 3437.77 915.389 3423.11 942.037C3408.9 968.241 3389.8 988.894 3365.82 1003.99C3341.84 1019.09 3314.97 1026.65 3285.21 1026.65C3261.22 1026.65 3240.57 1022.43 3223.25 1013.99C3205.93 1005.55 3191.5 993.779 3179.95 978.678V1165.22H3080.02ZM3259.89 939.373C3275.88 939.373 3290.09 935.819 3302.53 928.713C3315.41 921.163 3325.4 910.726 3332.51 897.402C3339.61 884.078 3343.17 868.755 3343.17 851.434C3343.17 834.113 3339.61 818.79 3332.51 805.466C3325.4 792.142 3315.41 781.705 3302.53 774.154C3290.09 766.16 3275.88 762.163 3259.89 762.163C3243.46 762.163 3228.8 766.16 3215.92 774.154C3203.49 781.705 3193.72 792.142 3186.61 805.466C3179.5 818.79 3175.95 833.89 3175.95 850.768C3175.95 868.089 3179.5 883.412 3186.61 896.736C3193.72 910.06 3203.49 920.497 3215.92 928.047C3228.8 935.597 3243.46 939.373 3259.89 939.373ZM3521.77 1018.65V538.985H3621.7V1018.65H3521.77ZM3835.06 1026.65C3807.08 1026.65 3783.32 1020.87 3763.78 1009.32C3744.68 997.776 3730.03 980.899 3719.81 958.692C3710.04 936.042 3705.16 908.505 3705.16 876.083V682.885H3805.09V866.09C3805.09 890.962 3810.19 910.06 3820.41 923.384C3830.62 936.264 3847.06 942.704 3869.71 942.704C3883.48 942.704 3895.69 939.595 3906.35 933.377C3917.45 927.159 3925.89 918.054 3931.66 906.062C3937.88 894.071 3940.99 879.414 3940.99 862.093V682.885H4040.92V1018.65H3953.65L3945.65 965.354C3935.88 983.564 3921.67 998.442 3903.02 1009.99C3884.36 1021.09 3861.71 1026.65 3835.06 1026.65ZM4267.37 1026.65C4235.83 1026.65 4208.52 1021.76 4185.42 1011.99C4162.77 1001.77 4144.79 988.005 4131.46 970.684C4118.58 953.363 4111.25 933.821 4109.48 912.058H4208.74C4210.52 919.609 4213.63 926.493 4218.07 932.71C4222.95 938.484 4229.39 943.148 4237.39 946.701C4245.83 949.81 4255.15 951.364 4265.37 951.364C4276.47 951.364 4285.36 950.032 4292.02 947.367C4299.12 944.258 4304.45 940.261 4308.01 935.375C4311.56 930.49 4313.34 925.382 4313.34 920.053C4313.34 911.614 4310.67 905.174 4305.34 900.733C4300.46 896.291 4293.13 892.738 4283.36 890.074C4273.59 886.965 4261.82 884.078 4248.05 881.413C4232.06 877.86 4216.07 873.863 4200.08 869.421C4184.54 864.536 4170.55 858.54 4158.11 851.434C4146.12 844.328 4136.35 835.223 4128.8 824.119C4121.69 812.572 4118.14 798.582 4118.14 782.149C4118.14 762.163 4123.69 744.175 4134.79 728.186C4145.9 711.753 4161.89 698.873 4182.76 689.547C4203.63 679.776 4228.95 674.89 4258.71 674.89C4300.9 674.89 4333.99 684.217 4357.97 702.871C4381.95 721.524 4396.17 746.618 4400.61 778.151H4307.34C4304.68 769.269 4299.12 762.607 4290.68 758.165C4282.25 753.28 4271.59 750.837 4258.71 750.837C4244.05 750.837 4232.95 753.28 4225.4 758.165C4217.85 763.051 4214.07 769.491 4214.07 777.485C4214.07 782.815 4216.51 787.7 4221.4 792.142C4226.73 796.139 4234.28 799.692 4244.05 802.801C4253.82 805.91 4265.81 809.019 4280.03 812.128C4307.12 817.902 4330.44 824.119 4349.98 830.782C4369.96 837.444 4385.51 847.214 4396.61 860.094C4407.71 872.53 4413.04 890.74 4412.6 914.723C4413.04 936.486 4407.27 955.806 4395.28 972.683C4383.73 989.56 4367.08 1002.88 4345.31 1012.65C4323.55 1021.98 4297.57 1026.65 4267.37 1026.65Z" fill="#535353"/>
</svg>
