<?xml version="1.0" standalone="no"?>
<!DOCTYPE svg PUBLIC "-//W3C//DTD SVG 20010904//EN"
 "http://www.w3.org/TR/2001/REC-SVG-20010904/DTD/svg10.dtd">
<svg version="1.0" xmlns="http://www.w3.org/2000/svg"
 width="512.000000pt" height="512.000000pt" viewBox="0 0 512.000000 512.000000"
 preserveAspectRatio="xMidYMid meet">
<metadata>
Created by potrace 1.11, written by Peter Selinger 2001-2013
</metadata>
<g transform="translate(0.000000,512.000000) scale(0.100000,-0.100000)"
fill="#000000" stroke="none">
<path d="M2348 4766 c-109 -63 -203 -116 -210 -120 -7 -3 -20 -10 -28 -16 -19
-12 -114 -68 -410 -238 -481 -276 -1017 -586 -1087 -628 -39 -23 -73 -40 -76
-38 -3 3 -5 -519 -5 -1160 l0 -1165 292 -169 c293 -170 727 -421 801 -462 22
-12 99 -56 170 -98 167 -96 690 -399 732 -423 l32 -18 207 120 c114 66 226
131 248 143 23 13 214 124 426 246 212 122 401 231 420 242 19 11 127 73 240
138 213 123 225 130 383 220 61 35 95 60 92 68 -3 7 0 10 5 7 11 -7 7 36 -4
54 -4 5 -2 13 4 16 8 5 7 12 -2 23 -10 12 -10 14 0 8 6 -4 12 -2 12 3 0 6 -6
11 -12 11 -10 0 -9 3 1 9 10 6 10 10 1 16 -9 6 -9 9 0 15 9 6 9 12 0 30 -9 17
-9 21 0 15 14 -9 10 27 -5 37 -6 5 -6 8 2 8 11 0 10 30 -2 49 -3 5 -1 13 5 16
8 5 7 11 -1 22 -10 11 -10 16 0 22 10 7 11 13 1 31 -8 15 -8 20 -1 16 6 -4 11
-3 11 3 0 5 -5 13 -11 17 -8 5 -8 9 1 14 9 6 9 12 0 30 -8 15 -8 20 -1 16 15
-10 14 7 -1 22 -9 9 -9 12 0 12 12 0 12 26 -1 46 -3 6 -3 14 0 18 10 10 11
256 1 262 -4 3 -4 13 2 23 6 12 5 22 -3 31 -9 10 -9 11 1 6 6 -4 12 -2 12 3 0
6 -5 11 -10 11 -7 0 -7 6 0 20 6 11 7 20 1 20 -12 0 -9 33 4 43 6 6 5 10 -3
14 -10 4 -10 8 0 21 10 12 10 14 1 8 -7 -4 -13 -2 -13 3 0 6 6 11 13 11 9 0 8
3 -2 9 -11 7 -11 10 0 15 11 5 11 7 1 12 -10 5 -10 9 0 22 10 12 10 14 1 8 -7
-4 -13 -2 -13 3 0 6 6 11 13 11 9 0 8 3 -2 9 -11 7 -11 10 0 15 11 5 11 7 1
12 -10 5 -10 9 0 22 10 12 10 14 1 8 -7 -4 -13 -2 -13 3 0 6 6 11 13 11 9 0 8
3 -2 9 -11 7 -11 10 0 15 11 5 11 7 1 12 -10 5 -10 9 0 22 10 12 10 14 1 8 -7
-4 -13 -3 -13 3 0 5 6 12 13 15 9 5 9 7 0 12 -9 4 -10 11 -3 25 7 13 7 19 1
19 -7 0 -7 8 -1 24 6 16 5 27 -3 35 -8 8 -8 14 -2 19 15 10 17 32 5 46 -5 7
-7 16 -3 20 12 12 10 190 -2 198 -7 5 -7 8 1 8 12 0 12 29 -1 49 -5 10 -4 12
3 7 7 -4 12 -3 12 3 0 5 -5 13 -11 17 -8 5 -8 9 1 14 9 6 9 12 0 30 -8 15 -8
20 -1 16 6 -4 11 -3 11 3 0 5 -5 13 -11 17 -8 5 -8 9 1 14 9 6 9 12 0 30 -8
16 -9 20 -1 15 12 -7 9 34 -3 54 -4 5 -2 13 4 16 8 5 7 12 -2 23 -10 12 -10
14 0 8 6 -4 12 -2 12 3 0 6 -6 11 -12 11 -10 0 -9 3 1 9 10 6 10 10 1 16 -9 6
-9 9 0 15 9 6 9 12 0 30 -9 17 -9 21 0 15 14 -9 10 27 -5 37 -6 5 -6 8 2 8 11
0 10 36 -2 48 -2 3 0 11 6 18 7 8 7 14 -1 19 -5 3 -10 12 -10 18 0 7 4 6 10
-3 8 -12 9 -9 8 12 -2 24 -34 45 -313 206 -458 265 -1024 592 -1070 617 -22
13 -174 100 -338 194 -165 94 -304 171 -310 171 -7 0 -101 -52 -209 -114z
m347 -191 c33 -19 85 -49 116 -66 l56 -32 0 -174 -1 -174 -68 -40 c-80 -47
-184 -105 -214 -120 -18 -9 -43 1 -165 71 -79 46 -146 84 -148 86 -2 2 -4 17
-4 34 0 36 -6 36 -102 11 -204 -54 -409 -148 -565 -259 -164 -116 -329 -287
-433 -447 -105 -163 -197 -382 -232 -554 -16 -78 -20 -102 -30 -191 -7 -50 -6
-247 0 -300 3 -25 7 -69 10 -99 3 -29 8 -57 10 -61 7 -11 -5 -40 -16 -40 -4 0
-35 -16 -68 -35 -64 -38 -77 -42 -78 -22 -1 19 -14 91 -18 105 -25 73 -25 511
0 584 2 7 6 27 8 43 12 77 66 267 97 340 116 269 219 425 399 606 173 172 297
262 506 364 144 71 261 112 412 146 l101 23 -2 50 -1 50 149 88 150 87 35 -20
c20 -10 63 -35 96 -54z m512 -300 c296 -108 565 -305 798 -586 96 -115 237
-374 288 -529 100 -300 129 -643 77 -900 -6 -30 -13 -68 -16 -85 -4 -28 -23
-98 -57 -207 l-15 -48 47 -25 46 -25 0 -175 0 -174 -110 -62 c-60 -35 -127
-74 -148 -88 -45 -29 -21 -38 -253 97 l-91 53 1 174 c1 95 3 175 6 177 3 3 69
41 148 86 141 80 144 81 173 67 16 -9 29 -13 29 -10 0 3 0 7 0 10 0 3 7 22 14
42 21 55 55 211 63 290 9 85 10 330 0 403 -21 171 -95 421 -159 534 -5 11 -22
40 -36 65 -140 253 -346 467 -597 621 -75 46 -204 108 -270 131 -22 7 -43 16
-48 19 -6 5 -12 143 -8 173 2 12 16 9 118 -28z m-231 -776 c645 -372 604 -346
605 -377 0 -15 1 -278 1 -586 l1 -558 -29 -24 c-16 -13 -32 -23 -35 -24 -4 0
-421 -236 -529 -300 -8 -4 -109 -63 -223 -129 l-208 -121 -132 76 c-73 42
-148 85 -167 96 -28 16 -222 127 -473 271 -18 11 -82 48 -142 83 l-111 64 1
589 c0 324 2 591 5 594 3 2 145 84 315 182 171 98 378 217 461 265 83 48 157
90 165 93 11 6 41 24 75 46 1 1 190 -108 420 -240z m-1788 -1533 c71 -41 138
-80 149 -87 19 -11 20 -23 20 -186 l0 -174 -29 -15 c-15 -8 -28 -18 -28 -23 0
-13 167 -174 235 -227 125 -97 270 -180 406 -235 74 -29 194 -67 233 -73 18
-3 39 -8 47 -10 73 -26 352 -39 514 -24 95 8 261 43 354 74 163 55 413 195
535 302 15 12 32 22 38 22 7 0 45 -19 85 -42 l74 -42 -23 -21 c-260 -239 -658
-426 -983 -460 -27 -3 -63 -8 -79 -11 -32 -7 -285 -7 -361 0 -200 18 -437 87
-633 184 -194 96 -315 185 -487 355 l-120 118 -38 -21 -38 -22 -137 78 c-75
42 -144 83 -152 90 -12 10 -15 43 -14 178 0 99 4 170 10 176 8 8 283 168 291
170 1 0 60 -33 131 -74z"/>
<path d="M2475 4451 l-80 -47 -3 -84 c-3 -111 0 -122 46 -147 21 -11 59 -32
83 -46 l44 -26 80 46 c44 25 83 51 87 56 3 6 6 53 5 106 l-2 94 -72 43 c-39
23 -80 44 -90 47 -10 3 -51 -15 -98 -42z"/>
<path d="M3978 1843 l-78 -45 0 -102 0 -102 83 -47 c46 -26 87 -47 92 -47 4 0
44 21 89 47 l83 46 -1 101 -1 101 -80 47 c-44 27 -87 47 -95 47 -8 -1 -50 -22
-92 -46z"/>
<path d="M2307 3015 c-137 -80 -253 -145 -258 -145 -11 0 -10 21 -12 -318 -2
-241 0 -285 13 -296 14 -11 435 -258 487 -285 20 -10 50 4 275 135 139 80 256
151 260 157 3 6 6 142 6 303 l0 293 -132 77 c-72 42 -147 86 -166 96 -19 11
-76 45 -127 74 -50 30 -93 54 -95 54 -1 -1 -115 -66 -251 -145z"/>
<path d="M971 1846 c-40 -24 -76 -48 -80 -54 -5 -8 -6 -160 -2 -194 1 -8 156
-98 169 -98 5 0 46 21 90 47 l81 47 3 70 c6 126 4 131 -60 168 -90 51 -104 58
-116 58 -6 -1 -44 -20 -85 -44z"/>
</g>
</svg>
