<svg version="1.0" viewBox="0 0 512 512"><path d="M234.8 35.4c-10.9 6.3-20.3 11.6-21 12-.7.3-2 1-2.8 1.6-1.9 1.2-11.4 6.8-41 23.8-48.1 27.6-101.7 58.6-108.7 62.8-3.9 2.3-7.3 4-7.6 3.8-.3-.3-.5 51.9-.5 116v116.5l29.2 16.9c29.3 17 72.7 42.1 80.1 46.2 2.2 1.2 9.9 5.6 17 9.8 16.7 9.6 69 39.9 73.2 42.3l3.2 1.8 20.7-12c11.4-6.6 22.6-13.1 24.8-14.3 2.3-1.3 21.4-12.4 42.6-24.6 21.2-12.2 40.1-23.1 42-24.2 1.9-1.1 12.7-7.3 24-13.8 21.3-12.3 22.5-13 38.3-22 6.1-3.5 9.5-6 9.2-6.8-.3-.7 0-1 .5-.7 1.1.7.7-3.6-.4-5.4-.4-.5-.2-1.3.4-1.6.8-.5.7-1.2-.2-2.3-1-1.2-1-1.4 0-.8.6.4 1.2.2 1.2-.3 0-.6-.6-1.1-1.2-1.1-1 0-.9-.3.1-.9 1-.6 1-1 .1-1.6-.9-.6-.9-.9 0-1.5s.9-1.2 0-3c-.9-1.7-.9-2.1 0-1.5 1.4.9 1-2.7-.5-3.7-.6-.5-.6-.8.2-.8 1.1 0 1-3-.2-4.9-.3-.5-.1-1.3.5-1.6.8-.5.7-1.1-.1-2.2-1-1.1-1-1.6 0-2.2 1-.7 1.1-1.3.1-3.1-.8-1.5-.8-2-.1-1.6.6.4 1.1.3 1.1-.3 0-.5-.5-1.3-1.1-1.7-.8-.5-.8-.9.1-1.4.9-.6.9-1.2 0-3-.8-1.5-.8-2-.1-1.6 1.5 1 1.4-.7-.1-2.2-.9-.9-.9-1.2 0-1.2 1.2 0 1.2-2.6-.1-4.6-.3-.6-.3-1.4 0-1.8 1-1 1.1-25.6.1-26.2-.4-.3-.4-1.3.2-2.3.6-1.2.5-2.2-.3-3.1-.9-1-.9-1.1.1-.6.6.4 1.2.2 1.2-.3 0-.6-.5-1.1-1-1.1-.7 0-.7-.6 0-2 .6-1.1.7-2 .1-2-1.2 0-.9-3.3.4-4.3.6-.6.5-1-.3-1.4-1-.4-1-.8 0-2.1 1-1.2 1-1.4.1-.8-.7.4-1.3.2-1.3-.3 0-.6.6-1.1 1.3-1.1.9 0 .8-.3-.2-.9-1.1-.7-1.1-1 0-1.5s1.1-.7.1-1.2-1-.9 0-2.2c1-1.2 1-1.4.1-.8-.7.4-1.3.2-1.3-.3 0-.6.6-1.1 1.3-1.1.9 0 .8-.3-.2-.9-1.1-.7-1.1-1 0-1.5s1.1-.7.1-1.2-1-.9 0-2.2c1-1.2 1-1.4.1-.8-.7.4-1.3.2-1.3-.3 0-.6.6-1.1 1.3-1.1.9 0 .8-.3-.2-.9-1.1-.7-1.1-1 0-1.5s1.1-.7.1-1.2-1-.9 0-2.2c1-1.2 1-1.4.1-.8-.7.4-1.3.3-1.3-.3 0-.5.6-1.2 1.3-1.5.9-.5.9-.7 0-1.2-.9-.4-1-1.1-.3-2.5.7-1.3.7-1.9.1-1.9-.7 0-.7-.8-.1-2.4.6-1.6.5-2.7-.3-3.5-.8-.8-.8-1.4-.2-1.9 1.5-1 1.7-3.2.5-4.6-.5-.7-.7-1.6-.3-2 1.2-1.2 1-19-.2-19.8-.7-.5-.7-.8.1-.8 1.2 0 1.2-2.9-.1-4.9-.5-1-.4-1.2.3-.7.7.4 1.2.3 1.2-.3 0-.5-.5-1.3-1.1-1.7-.8-.5-.8-.9.1-1.4.9-.6.9-1.2 0-3-.8-1.5-.8-2-.1-1.6.6.4 1.1.3 1.1-.3 0-.5-.5-1.3-1.1-1.7-.8-.5-.8-.9.1-1.4.9-.6.9-1.2 0-3-.8-1.6-.9-2-.1-1.5 1.2.7.9-3.4-.3-5.4-.4-.5-.2-1.3.4-1.6.8-.5.7-1.2-.2-2.3-1-1.2-1-1.4 0-.8.6.4 1.2.2 1.2-.3 0-.6-.6-1.1-1.2-1.1-1 0-.9-.3.1-.9 1-.6 1-1 .1-1.6-.9-.6-.9-.9 0-1.5s.9-1.2 0-3c-.9-1.7-.9-2.1 0-1.5 1.4.9 1-2.7-.5-3.7-.6-.5-.6-.8.2-.8 1.1 0 1-3.6-.2-4.8-.2-.3 0-1.1.6-1.8.7-.8.7-1.4-.1-1.9-.5-.3-1-1.2-1-1.8 0-.7.4-.6 1 .3.8 1.2.9.9.8-1.2-.2-2.4-3.4-4.5-31.3-20.6-45.8-26.5-102.4-59.2-107-61.7-2.2-1.3-17.4-10-33.8-19.4-16.5-9.4-30.4-17.1-31-17.1-.7 0-10.1 5.2-20.9 11.4zm34.7 19.1c3.3 1.9 8.5 4.9 11.6 6.6l5.6 3.2v17.4l-.1 17.4-6.8 4c-8 4.7-18.4 10.5-21.4 12-1.8.9-4.3-.1-16.5-7.1-7.9-4.6-14.6-8.4-14.8-8.6-.2-.2-.4-1.7-.4-3.4 0-3.6-.6-3.6-10.2-1.1-20.4 5.4-40.9 14.8-56.5 25.9-16.4 11.6-32.9 28.7-43.3 44.7-10.5 16.3-19.7 38.2-23.2 55.4-1.6 7.8-2 10.2-3 19.1-.7 5-.6 24.7 0 30 .3 2.5.7 6.9 1 9.9.3 2.9.8 5.7 1 6.1.7 1.1-.5 4-1.6 4-.4 0-3.5 1.6-6.8 3.5-6.4 3.8-7.7 4.2-7.8 2.2-.1-1.9-1.4-9.1-1.8-10.5-2.5-7.3-2.5-51.1 0-58.4.2-.7.6-2.7.8-4.3 1.2-7.7 6.6-26.7 9.7-34 11.6-26.9 21.9-42.5 39.9-60.6 17.3-17.2 29.7-26.2 50.6-36.4 14.4-7.1 26.1-11.2 41.2-14.6l10.1-2.3-.2-5-.1-5 14.9-8.8 15-8.7 3.5 2c2 1 6.3 3.5 9.6 5.4zm51.2 30c29.6 10.8 56.5 30.5 79.8 58.6 9.6 11.5 23.7 37.4 28.8 52.9 10 30 12.9 64.3 7.7 90-.6 3-1.3 6.8-1.6 8.5-.4 2.8-2.3 9.8-5.7 20.7l-1.5 4.8 4.7 2.5 4.6 2.5v34.9l-11 6.2c-6 3.5-12.7 7.4-14.8 8.8-4.5 2.9-2.1 3.8-25.3-9.7l-9.1-5.3.1-17.4c.1-9.5.3-17.5.6-17.7.3-.3 6.9-4.1 14.8-8.6 14.1-8 14.4-8.1 17.3-6.7 1.6.9 2.9 1.3 2.9 1v-1c0-.3.7-2.2 1.4-4.2 2.1-5.5 5.5-21.1 6.3-29 .9-8.5 1-33 0-40.3-2.1-17.1-9.5-42.1-15.9-53.4-.5-1.1-2.2-4-3.6-6.5-14-25.3-34.6-46.7-59.7-62.1-7.5-4.6-20.4-10.8-27-13.1-2.2-.7-4.3-1.6-4.8-1.9-.6-.5-1.2-14.3-.8-17.3.2-1.2 1.6-.9 11.8 2.8zm-23.1 77.6c64.5 37.2 60.4 34.6 60.5 37.7 0 1.5.1 27.8.1 58.6l.1 55.8-2.9 2.4c-1.6 1.3-3.2 2.3-3.5 2.4-.4 0-42.1 23.6-52.9 30-.8.4-10.9 6.3-22.3 12.9L255.9 374l-13.2-7.6c-7.3-4.2-14.8-8.5-16.7-9.6-2.8-1.6-22.2-12.7-47.3-27.1-1.8-1.1-8.2-4.8-14.2-8.3l-11.1-6.4.1-58.9c0-32.4.2-59.1.5-59.4.3-.2 14.5-8.4 31.5-18.2 17.1-9.8 37.8-21.7 46.1-26.5 8.3-4.8 15.7-9 16.5-9.3 1.1-.6 4.1-2.4 7.5-4.6.1-.1 19 10.8 42 24zM118.8 315.4c7.1 4.1 13.8 8 14.9 8.7 1.9 1.1 2 2.3 2 18.6v17.4l-2.9 1.5c-1.5.8-2.8 1.8-2.8 2.3 0 1.3 16.7 17.4 23.5 22.7 12.5 9.7 27 18 40.6 23.5 7.4 2.9 19.4 6.7 23.3 7.3 1.8.3 3.9.8 4.7 1 7.3 2.6 35.2 3.9 51.4 2.4 9.5-.8 26.1-4.3 35.4-7.4 16.3-5.5 41.3-19.5 53.5-30.2 1.5-1.2 3.2-2.2 3.8-2.2.7 0 4.5 1.9 8.5 4.2l7.4 4.2-2.3 2.1c-26 23.9-65.8 42.6-98.3 46-2.7.3-6.3.8-7.9 1.1-3.2.7-28.5.7-36.1 0-20-1.8-43.7-8.7-63.3-18.4-19.4-9.6-31.5-18.5-48.7-35.5l-12-11.8-3.8 2.1-3.8 2.2-13.7-7.8c-7.5-4.2-14.4-8.3-15.2-9-1.2-1-1.5-4.3-1.4-17.8 0-9.9.4-17 1-17.6.8-.8 28.3-16.8 29.1-17 .1 0 6 3.3 13.1 7.4z"/><path d="M247.5 66.9l-8 4.7-.3 8.4c-.3 11.1 0 12.2 4.6 14.7 2.1 1.1 5.9 3.2 8.3 4.6l4.4 2.6 8-4.6c4.4-2.5 8.3-5.1 8.7-5.6.3-.6.6-5.3.5-10.6l-.2-9.4-7.2-4.3c-3.9-2.3-8-4.4-9-4.7-1-.3-5.1 1.5-9.8 4.2zm150.3 260.8l-7.8 4.5v20.4l8.3 4.7c4.6 2.6 8.7 4.7 9.2 4.7.4 0 4.4-2.1 8.9-4.7l8.3-4.6-.1-10.1-.1-10.1-8-4.7c-4.4-2.7-8.7-4.7-9.5-4.7-.8.1-5 2.2-9.2 4.6zM230.7 210.5c-13.7 8-25.3 14.5-25.8 14.5-1.1 0-1-2.1-1.2 31.8-.2 24.1 0 28.5 1.3 29.6 1.4 1.1 43.5 25.8 48.7 28.5 2 1 5-.4 27.5-13.5 13.9-8 25.6-15.1 26-15.7.3-.6.6-14.2.6-30.3v-29.3l-13.2-7.7c-7.2-4.2-14.7-8.6-16.6-9.6-1.9-1.1-7.6-4.5-12.7-7.4-5-3-9.3-5.4-9.5-5.4-.1.1-11.5 6.6-25.1 14.5zM97.1 327.4c-4 2.4-7.6 4.8-8 5.4-.5.8-.6 16-.2 19.4.1.8 15.6 9.8 16.9 9.8.5 0 4.6-2.1 9-4.7l8.1-4.7.3-7c.6-12.6.4-13.1-6-16.8-9-5.1-10.4-5.8-11.6-5.8-.6.1-4.4 2-8.5 4.4z"/></svg>