<?xml version="1.0" encoding="UTF-8" standalone="no"?>
<svg
   width="873.41901"
   height="838.49463"
   viewBox="0 0 873.41901 838.49463"
   version="1.1"
   id="svg2"
   sodipodi:docname="open-appsec-logo.svg"
   inkscape:version="1.3 (0e150ed6c4, 2023-07-21)"
   xmlns:inkscape="http://www.inkscape.org/namespaces/inkscape"
   xmlns:sodipodi="http://sodipodi.sourceforge.net/DTD/sodipodi-0.dtd"
   xmlns="http://www.w3.org/2000/svg"
   xmlns:svg="http://www.w3.org/2000/svg">
  <sodipodi:namedview
     id="namedview2"
     pagecolor="#ffffff"
     bordercolor="#000000"
     borderopacity="0.25"
     inkscape:showpageshadow="2"
     inkscape:pageopacity="0.0"
     inkscape:pagecheckerboard="0"
     inkscape:deskcolor="#d1d1d1"
     showgrid="false"
     inkscape:zoom="0.27439024"
     inkscape:cx="1568.9333"
     inkscape:cy="351.68889"
     inkscape:window-width="1680"
     inkscape:window-height="979"
     inkscape:window-x="-8"
     inkscape:window-y="-8"
     inkscape:window-maximized="1"
     inkscape:current-layer="svg2" />
  <defs
     id="defs1">
    <clipPath
       id="clip-Without_CP">
      <rect
         width="3444"
         height="979"
         id="rect1"
         x="0"
         y="0" />
    </clipPath>
  </defs>
  <g
     id="Group_1_copy-2"
     data-name="Group 1 copy"
     transform="translate(-16.001,-12)">
    <path
       id="Shape_3"
       data-name="Shape 3"
       d="m 943.882,813.9 c 0,0 -76.84,12.621 -141.535,-1.855 -63.8,-14.276 -115.462,-55.652 -115.462,-55.652 0,0 -87.913,63.539 -176.918,63.072 C 422.06,819 333.048,754.536 333.048,754.536 c 0,0 -41.188,37.694 -102.426,51.942 -66.14,15.389 -152.708,7.42 -152.708,7.42 v 77.913 c 0,0 83.521,12.22 154.57,0 56.763,-9.763 104.289,-44.522 104.289,-44.522 0,0 68.9,50.51 176.918,50.087 95.062,-0.372 171.332,-51.942 171.332,-51.942 0,0 54.106,35.641 113.6,46.377 68.383,12.34 143.4,0 143.4,0 z"
       transform="translate(-61.913,-46.884)"
       fill="#ff0b05" />
    <path
       id="Shape_2"
       data-name="Shape 2"
       d="m 727.624,274.073 c 0,0 21.518,103.827 16.76,192.927 -4.549,85.193 -37.246,157.681 -37.246,157.681 0,0 76.431,26.129 121.05,61.219 43.834,34.471 57.731,76.058 57.731,76.058 0,0 -53.385,9.1 -102.427,-9.275 -51.955,-19.463 -98.7,-55.652 -98.7,-55.652 0,0 -79.692,64.725 -175.057,63.069 C 409,758.354 342.128,697.029 342.128,697.029 c 0,0 -54.86,40.153 -111.738,57.507 -45.1,13.761 -93.115,7.42 -93.115,7.42 0,0 38.01,-96.083 169.469,-133.565 64.982,-18.528 154.034,-27.082 225.338,-25.971 66.292,1.033 117.325,11.13 117.325,11.13 0,0 44.715,-82.589 57.731,-176.232 12.091,-86.981 -14.9,-181.8 -14.9,-181.8 z"
       transform="translate(-61.682,-46.884)"
       fill="#8b1548" />
    <path
       id="Shape_1"
       data-name="Shape 1"
       d="m 730.221,146.072 c 0,0 -28.435,-37.192 -67.042,-59.362 -40.495,-23.253 -89.39,-27.826 -89.39,-27.826 0,0 43.638,22.244 67.043,44.522 17.685,16.834 14.9,31.536 14.9,31.536 0,0 -56.372,-17.173 -109.876,7.42 -103.573,47.607 -119.189,118.725 -119.189,118.725 0,0 48.89,-43.93 85.666,-61.217 45.218,-21.256 76.354,-14.841 76.354,-14.841 a 9.365,9.365 0 0 1 9.311,3.71 c 5.734,7.85 -1.862,16.7 -1.862,16.7 0,0 -61.447,49.466 -72.63,105.739 -16.1,81.044 26.072,170.667 26.072,170.667 0,0 -19.194,-84.193 20.485,-153.971 16.627,-29.239 47.676,-63.819 74.492,-83.478 30.46,-22.331 55.869,-27.826 55.869,-27.826 0,0 36.166,6.686 68.905,55.652 12.261,18.339 26.846,42.126 31.659,66.783 11.488,58.848 1.862,133.565 1.862,133.565 0,0 41.487,-47.813 44.7,-128 2.718,-67.941 -37.246,-113.159 -37.246,-113.159 0,0 -10.414,-12.34 -9.581,-17.736 1.012,-6.55 13.305,-6.38 13.305,-6.38 a 226.339,226.339 0 0 1 59.593,25.971 c 37.294,23.409 76.354,59.362 76.354,59.362 0,0 -31.733,-74.906 -96.839,-116.87 -38.15,-24.592 -122.915,-29.686 -122.915,-29.686 z"
       transform="translate(-60.555,-46.884)"
       fill="#ff2885" />
  </g>
</svg>
